SplineFontDB: 3.0
FontName: Bodoni-24-Medium-Italic
FullName: Bodoni* 24 Medium Italic
FamilyName: Bodoni* 24 Medium
Weight: Medium
Copyright: Copyright (c) 2017, Owen Earl,,, (EwonRael@yahoo.com)
Version: 001.2
ItalicAngle: -13
UnderlinePosition: -800
UnderlineWidth: 400
Ascent: 6400
Descent: 1600
InvalidEm: 0
LayerCount: 2
Layer: 0 0 "Back" 1
Layer: 1 0 "Fore" 0
PreferredKerning: 4
XUID: [1021 31 -699969567 16487490]
FSType: 0
OS2Version: 0
OS2_WeightWidthSlopeOnly: 0
OS2_UseTypoMetrics: 1
CreationTime: 1460762150
ModificationTime: 1548990330
PfmFamily: 17
TTFWeight: 500
TTFWidth: 5
LineGap: 800
VLineGap: 0
OS2TypoAscent: 6400
OS2TypoAOffset: 0
OS2TypoDescent: -1600
OS2TypoDOffset: 0
OS2TypoLinegap: 800
OS2WinAscent: 8000
OS2WinAOffset: 0
OS2WinDescent: 3200
OS2WinDOffset: 0
HheadAscent: 8000
HheadAOffset: 0
HheadDescent: -1600
HheadDOffset: 0
OS2CapHeight: 700
OS2XHeight: 460
OS2FamilyClass: 768
OS2Vendor: 'PfEd'
OS2UnicodeRanges: 00000001.00000000.00000000.00000000
Lookup: 1 0 0 "'ss04' Style Set 4 lookup 5" { "'ss04' Style Set 4 lookup 5-1"  } ['ss04' ('DFLT' <'dflt' > 'grek' <'dflt' > 'latn' <'dflt' > ) ]
Lookup: 1 0 0 "'ss02' Style Set 2 lookup 4" { "'ss02' Style Set 2 lookup 4-1"  } ['ss02' ('DFLT' <'dflt' > 'grek' <'dflt' > 'latn' <'dflt' > ) ]
Lookup: 1 0 0 "'ss03' Style Set 3 lookup 5" { "'ss03' Style Set 3 lookup 5-1"  } ['ss03' ('DFLT' <'dflt' > 'grek' <'dflt' > 'latn' <'dflt' > ) ]
Lookup: 1 0 0 "'ss01' Style Set 1 lookup 2" { "'ss01' Style Set 1 lookup 2-1"  } ['ss01' ('DFLT' <'dflt' > 'grek' <'dflt' > 'latn' <'dflt' > ) ]
Lookup: 5 0 0 "'calt' Contextual Alternates lookup 3" { "'calt' Contextual Alternates lookup 3-1"  } ['calt' ('DFLT' <'dflt' > 'grek' <'dflt' > 'latn' <'dflt' > ) ]
Lookup: 4 0 1 "'liga' Standard Ligatures lookup 0" { "'liga' Standard Ligatures lookup 0-1"  } ['liga' ('DFLT' <'dflt' > 'grek' <'dflt' > 'latn' <'dflt' > ) ]

StartChar: ampersand
Encoding: 38 38 0
GlifName: ampersand
Width: 6472
Flags: HMW
LayerCount: 2
Fore
SplineSet
2336 56 m 0
 4216 56 6216 1792 6256 2888 c 2
 6264 3016 l 1
 6216 2744 5976 2520 5672 2520 c 0
 5320 2520 5136 2808 5136 3056 c 0
 5136 3344 5384 3592 5712 3592 c 0
 6112 3592 6344 3280 6344 2928 c 0
 6344 1808 4304 -80 2024 -80 c 0
 896 -80 160 384 160 1264 c 0
 160 3392 4248 2848 4248 5184 c 0
 4248 5520 4080 6016 3704 6016 c 0
 3120 6016 2856 5464 2856 4960 c 0
 2856 4680 2952 4304 3184 3760 c 2
 4480 760 l 2
 4608 432 4744 80 5064 80 c 0
 5384 80 5664 280 5808 584 c 1
 5864 560 l 1
 5712 208 5320 -80 4656 -80 c 0
 4072 -80 3680 152 3384 776 c 2
 2080 3760 l 2
 1928 4096 1856 4384 1856 4664 c 0
 1856 5464 2664 6080 3752 6080 c 0
 4448 6080 5160 5808 5160 5144 c 0
 5160 3352 1200 3936 1200 1248 c 0
 1200 784 1536 56 2336 56 c 0
EndSplineSet
EndChar

StartChar: period
Encoding: 46 46 1
GlifName: period
Width: 1792
Flags: HMW
LayerCount: 2
Fore
SplineSet
128 496 m 0
 128 816 384 1072 704 1072 c 0
 1024 1072 1280 816 1280 496 c 0
 1280 176 1024 -80 704 -80 c 0
 384 -80 128 176 128 496 c 0
EndSplineSet
EndChar

StartChar: zero
Encoding: 48 48 2
GlifName: zero
Width: 5088
Flags: HMW
LayerCount: 2
Fore
SplineSet
3600 6080 m 0
 4656 6080 5272 5224 5272 4256 c 0
 5272 1944 3800 -80 2240 -80 c 0
 1184 -80 568 776 568 1744 c 0
 568 4056 2040 6080 3600 6080 c 0
3600 6016 m 0
 2392 6016 1512 2808 1512 1328 c 0
 1512 680 1624 -16 2240 -16 c 0
 3448 -16 4328 3224 4328 4672 c 0
 4328 5320 4216 6016 3600 6016 c 0
EndSplineSet
EndChar

StartChar: one
Encoding: 49 49 3
GlifName: one
Width: 3672
VWidth: 9240
Flags: HMW
LayerCount: 2
Fore
SplineSet
-320 72 m 1
 2392 72 l 1
 2392 0 l 1
 -320 0 l 1
 -320 72 l 1
1896 5928 m 1
 976 5928 l 1
 976 6000 l 1
 2872 6000 l 1
 1512 0 l 1
 560 0 l 1
 1896 5928 l 1
EndSplineSet
EndChar

StartChar: two
Encoding: 50 50 4
GlifName: two
Width: 4576
VWidth: 9240
Flags: HMW
LayerCount: 2
Fore
SplineSet
832 4336 m 1
 896 4528 1080 4736 1376 4736 c 0
 1664 4736 1928 4528 1928 4216 c 0
 1928 3848 1648 3616 1336 3616 c 0
 1024 3616 736 3832 736 4232 c 0
 736 5168 1648 6080 2808 6080 c 0
 3744 6080 4472 5648 4472 4808 c 0
 4472 3952 3264 3200 2728 2800 c 2
 336 912 l 1
 3632 912 l 1
 3760 1512 l 1
 3832 1512 l 1
 3504 0 l 1
 -328 0 l 1
 -184 632 l 1
 2008 2352 l 2
 2776 2944 3480 3896 3480 4656 c 0
 3480 5448 3168 5912 2480 5912 c 0
 1664 5912 864 5112 832 4336 c 1
EndSplineSet
EndChar

StartChar: three
Encoding: 51 51 5
GlifName: three
Width: 4344
VWidth: 9240
Flags: HMW
LayerCount: 2
Fore
SplineSet
1152 4864 m 0
 1152 5472 1864 6072 2840 6072 c 0
 3632 6072 4424 5832 4424 4936 c 0
 4424 4088 3640 3232 1792 3232 c 1
 1792 3288 l 1
 3064 3288 3440 4424 3440 5016 c 0
 3440 5648 3216 5960 2616 5960 c 0
 2024 5960 1448 5584 1320 5152 c 1
 1360 5224 1520 5336 1704 5336 c 0
 1992 5336 2224 5128 2224 4816 c 0
 2224 4464 1936 4288 1688 4288 c 0
 1400 4288 1152 4504 1152 4864 c 0
40 1160 m 0
 40 1536 272 1768 600 1768 c 0
 888 1768 1112 1560 1112 1240 c 0
 1112 936 856 720 576 720 c 0
 360 720 224 848 176 960 c 1
 224 488 752 24 1616 24 c 0
 2568 24 3024 1088 3024 1920 c 0
 3024 2552 2824 3216 1792 3216 c 1
 1792 3272 l 1
 3480 3272 4008 2744 4008 1848 c 0
 4008 752 2880 -80 1720 -80 c 0
 568 -80 40 568 40 1160 c 0
EndSplineSet
EndChar

StartChar: four
Encoding: 52 52 6
GlifName: four
Width: 4968
VWidth: 9240
Flags: HMW
LayerCount: 2
Fore
SplineSet
4224 72 m 1
 4224 0 l 1
 1912 0 l 1
 1912 72 l 1
 4224 72 l 1
4888 6000 m 1
 3544 0 l 1
 2592 0 l 1
 3832 5696 l 1
 456 1760 l 1
 4824 1760 l 1
 4824 1680 l 1
 296 1680 l 1
 4000 6000 l 1
 4888 6000 l 1
EndSplineSet
Substitution2: "'ss03' Style Set 3 lookup 5-1" four.alt
EndChar

StartChar: five
Encoding: 53 53 7
GlifName: five
Width: 4200
VWidth: 9240
Flags: HMW
LayerCount: 2
Fore
SplineSet
3944 2224 m 0
 3944 960 2680 -80 1472 -80 c 0
 592 -80 0 472 0 1080 c 0
 0 1440 248 1656 536 1656 c 0
 784 1656 1072 1480 1072 1128 c 0
 1072 800 816 608 536 608 c 0
 320 608 176 736 136 840 c 1
 224 424 688 0 1392 0 c 0
 2424 0 2928 1392 2928 2304 c 0
 2928 3024 2680 3616 2096 3616 c 0
 1528 3616 976 3360 696 2968 c 1
 624 2968 l 1
 912 3424 1536 3712 2264 3712 c 0
 3264 3712 3944 3264 3944 2224 c 0
4352 5088 m 1
 1400 5088 l 1
 664 2968 l 1
 592 2968 l 1
 1640 6000 l 1
 4472 6000 l 1
 4576 6440 l 1
 4640 6440 l 1
 4352 5088 l 1
EndSplineSet
EndChar

StartChar: six
Encoding: 54 54 8
GlifName: six
Width: 4640
VWidth: 9240
Flags: HMW
LayerCount: 2
Fore
SplineSet
3488 2544 m 0
 3488 3296 3336 3760 2920 3760 c 0
 1904 3760 1368 2080 1368 1216 c 1
 1304 1216 l 1
 1304 2120 1824 3928 3120 3928 c 0
 3800 3928 4480 3520 4480 2400 c 0
 4480 1136 3256 -80 2016 -80 c 0
 1096 -80 400 480 400 1760 c 0
 400 3528 2320 6080 4680 6080 c 1
 4680 6016 l 1
 2792 6016 1384 3408 1384 1696 c 1
 1368 1216 l 1
 1368 544 1560 -8 2048 -8 c 0
 2856 -8 3488 1584 3488 2544 c 0
EndSplineSet
EndChar

StartChar: seven
Encoding: 55 55 9
GlifName: seven
Width: 4200
VWidth: 9240
Flags: HMW
LayerCount: 2
Fore
SplineSet
1168 592 m 0
 1168 1232 2080 2264 2728 3128 c 0
 3128 3656 3696 4416 4184 5048 c 1
 1120 5048 l 1
 984 4448 l 1
 912 4448 l 1
 1248 6000 l 1
 5000 6000 l 1
 5000 6000 3640 4200 2888 3192 c 0
 2336 2456 1832 1840 1832 1480 c 0
 1832 1096 2384 1096 2384 544 c 0
 2384 200 2152 -80 1752 -80 c 0
 1432 -80 1168 152 1168 592 c 0
EndSplineSet
EndChar

StartChar: eight
Encoding: 56 56 10
GlifName: eight
Width: 4592
VWidth: 9240
Flags: HMW
LayerCount: 2
Fore
SplineSet
1936 4112 m 0
 1936 3648 2040 3096 2512 3096 c 0
 3176 3096 3616 4048 3616 4880 c 0
 3616 5328 3520 6008 3032 6008 c 0
 2400 6008 1936 4944 1936 4112 c 0
960 4200 m 0
 960 5160 1856 6080 3032 6080 c 0
 4048 6080 4592 5400 4592 4760 c 0
 4592 3784 3648 3040 2520 3040 c 0
 1552 3040 960 3560 960 4200 c 0
1200 1152 m 0
 1200 528 1440 -8 1992 -8 c 0
 2736 -8 3184 1056 3184 1888 c 0
 3184 2512 2944 3016 2392 3016 c 0
 1648 3016 1200 1984 1200 1152 c 0
240 1200 m 0
 240 2160 944 3080 2360 3080 c 0
 3536 3080 4160 2640 4160 1840 c 0
 4160 880 3456 -80 2040 -80 c 0
 864 -80 240 400 240 1200 c 0
EndSplineSet
EndChar

StartChar: A
Encoding: 65 65 12
GlifName: A_
Width: 5944
Flags: HMW
LayerCount: 2
Fore
SplineSet
-368 72 m 1
 1392 72 l 1
 1392 0 l 1
 -368 0 l 1
 -368 72 l 1
2880 72 m 1
 5392 72 l 1
 5392 0 l 1
 2880 0 l 1
 2880 72 l 1
1496 2000 m 1
 4112 2000 l 1
 4112 1920 l 1
 1496 1920 l 1
 1496 2000 l 1
3296 5016 m 1
 400 0 l 1
 312 0 l 1
 3840 6120 l 1
 4072 6120 l 1
 4832 0 l 1
 3800 0 l 1
 3296 5016 l 1
EndSplineSet
EndChar

StartChar: B
Encoding: 66 66 13
GlifName: B_
Width: 5176
Flags: HMW
LayerCount: 2
Fore
SplineSet
2208 0 m 2
 -368 0 l 1
 -368 72 l 1
 2208 72 l 2
 3096 72 3712 1016 3712 2080 c 0
 3712 2792 3360 3040 2784 3040 c 2
 1808 3040 l 1
 1808 3104 l 1
 2896 3104 l 2
 4024 3104 4784 2736 4784 1888 c 0
 4784 688 3592 0 2208 0 c 2
1752 6000 m 1
 2704 6000 l 1
 1304 0 l 1
 352 0 l 1
 1752 6000 l 1
2768 3056 m 2
 1808 3056 l 1
 1808 3120 l 1
 2768 3120 l 2
 3376 3120 4232 3792 4232 4952 c 0
 4232 5488 3984 5928 3360 5928 c 2
 1032 5928 l 1
 1032 6000 l 1
 3368 6000 l 2
 4688 6000 5224 5640 5224 4808 c 0
 5224 3816 4056 3056 2768 3056 c 2
EndSplineSet
EndChar

StartChar: C
Encoding: 67 67 14
GlifName: C_
Width: 5400
Flags: HMW
LayerCount: 2
Fore
SplineSet
2552 -80 m 0
 1280 -80 432 736 432 2040 c 0
 432 4224 2048 6080 3944 6080 c 0
 4920 6080 5608 5456 5536 4312 c 1
 5464 4312 l 1
 5520 5440 4816 5976 4072 5976 c 0
 2408 5976 1488 3304 1488 1528 c 0
 1488 728 1832 24 2664 24 c 0
 3688 24 4504 776 4928 1688 c 1
 5000 1688 l 1
 4616 704 3696 -80 2552 -80 c 0
5464 4312 m 1
 5488 4640 l 1
 5480 4880 5352 5272 5240 5424 c 1
 5872 6000 l 1
 5928 6000 l 1
 5536 4312 l 1
 5464 4312 l 1
4928 1688 m 1
 5000 1688 l 1
 4560 0 l 1
 4504 0 l 1
 4176 552 l 1
 4320 688 4648 1056 4792 1320 c 1
 4928 1688 l 1
EndSplineSet
EndChar

StartChar: D
Encoding: 68 68 15
GlifName: D_
Width: 5752
Flags: HMW
LayerCount: 2
Fore
SplineSet
1792 6000 m 1
 2744 6000 l 1
 1384 0 l 1
 432 0 l 1
 1792 6000 l 1
2184 0 m 2
 -288 0 l 1
 -288 72 l 1
 2120 72 l 2
 3784 72 4688 2712 4688 4328 c 0
 4688 5064 4408 5928 3464 5928 c 2
 992 5928 l 1
 992 6000 l 1
 3512 6000 l 2
 4816 6000 5760 5280 5760 3928 c 0
 5760 1792 4176 0 2184 0 c 2
EndSplineSet
EndChar

StartChar: E
Encoding: 69 69 16
GlifName: E_
Width: 4720
Flags: HMW
LayerCount: 2
Fore
SplineSet
984 6000 m 1
 5328 6000 l 1
 4944 4360 l 1
 4872 4360 l 1
 5024 5216 4752 5928 3816 5928 c 2
 984 5928 l 1
 984 6000 l 1
1704 6000 m 1
 2656 6000 l 1
 1264 0 l 1
 312 0 l 1
 1704 6000 l 1
2384 3064 m 2
 1832 3064 l 1
 1832 3144 l 1
 2384 3144 l 2
 2840 3144 3304 3456 3472 3992 c 1
 3544 3992 l 1
 3136 2176 l 1
 3056 2176 l 1
 3128 2712 2840 3064 2384 3064 c 2
4016 0 m 1
 -368 0 l 1
 -368 72 l 1
 2424 72 l 2
 3520 72 4080 784 4360 1800 c 1
 4432 1800 l 1
 4016 0 l 1
EndSplineSet
EndChar

StartChar: F
Encoding: 70 70 17
GlifName: F_
Width: 4544
Flags: HMW
LayerCount: 2
Fore
SplineSet
2232 2944 m 2
 1824 2944 l 1
 1824 3024 l 1
 2232 3024 l 2
 2888 3024 3344 3312 3496 3848 c 1
 3560 3848 l 1
 3152 2080 l 1
 3080 2080 l 1
 3152 2616 2896 2944 2232 2944 c 2
-368 72 m 1
 2064 72 l 1
 2064 0 l 1
 -368 0 l 1
 -368 72 l 1
1704 6000 m 1
 2656 6000 l 1
 1264 0 l 1
 312 0 l 1
 1704 6000 l 1
984 6000 m 1
 5232 6000 l 1
 4848 4360 l 1
 4776 4360 l 1
 4928 5216 4672 5928 3736 5928 c 2
 984 5928 l 1
 984 6000 l 1
EndSplineSet
EndChar

StartChar: G
Encoding: 71 71 18
GlifName: G_
Width: 5984
Flags: HMW
LayerCount: 2
Fore
SplineSet
4320 2264 m 1
 5344 2264 l 1
 5104 1320 l 1
 4744 816 3856 -80 2552 -80 c 0
 1296 -80 432 704 432 2040 c 0
 432 4256 2112 6080 3992 6080 c 0
 4968 6080 5680 5456 5600 4312 c 1
 5528 4312 l 1
 5608 5416 4888 5968 4120 5968 c 0
 2440 5968 1488 3368 1488 1560 c 0
 1488 744 1712 0 2496 0 c 0
 3376 0 3840 760 3992 1000 c 1
 4320 2264 l 1
3584 2320 m 1
 5904 2320 l 1
 5904 2240 l 1
 3584 2240 l 1
 3584 2320 l 1
5936 6000 m 1
 5992 6000 l 1
 5600 4312 l 1
 5528 4312 l 1
 5560 4616 l 1
 5560 4800 5408 5280 5288 5448 c 1
 5936 6000 l 1
EndSplineSet
EndChar

StartChar: H
Encoding: 72 72 19
GlifName: H_
Width: 5936
Flags: HMW
LayerCount: 2
Fore
SplineSet
3048 72 m 1
 5384 72 l 1
 5384 0 l 1
 3048 0 l 1
 3048 72 l 1
4368 6000 m 1
 6704 6000 l 1
 6704 5928 l 1
 4368 5928 l 1
 4368 6000 l 1
5072 6000 m 1
 6024 6000 l 1
 4664 0 l 1
 3712 0 l 1
 5072 6000 l 1
-328 72 m 1
 2008 72 l 1
 2008 0 l 1
 -328 0 l 1
 -328 72 l 1
992 6000 m 1
 3328 6000 l 1
 3328 5928 l 1
 992 5928 l 1
 992 6000 l 1
1712 6000 m 1
 2664 6000 l 1
 1304 0 l 1
 352 0 l 1
 1712 6000 l 1
1680 3000 m 1
 4560 3000 l 1
 4560 2920 l 1
 1680 2920 l 1
 1680 3000 l 1
EndSplineSet
EndChar

StartChar: I
Encoding: 73 73 20
GlifName: I_
Width: 2976
Flags: HMW
LayerCount: 2
Fore
SplineSet
-328 72 m 1
 2424 72 l 1
 2424 0 l 1
 -328 0 l 1
 -328 72 l 1
992 6000 m 1
 3744 6000 l 1
 3744 5928 l 1
 992 5928 l 1
 992 6000 l 1
1912 6000 m 1
 2864 6000 l 1
 1504 0 l 1
 552 0 l 1
 1912 6000 l 1
EndSplineSet
EndChar

StartChar: J
Encoding: 74 74 21
GlifName: J_
Width: 3688
Flags: HMW
LayerCount: 2
Fore
SplineSet
1624 6000 m 1
 4456 6000 l 1
 4456 5928 l 1
 1624 5928 l 1
 1624 6000 l 1
-96 520 m 1
 -48 224 240 -168 712 -168 c 0
 1200 -168 1432 400 1688 1520 c 2
 2704 6000 l 1
 3656 6000 l 1
 2608 1352 l 1
 2208 712 1632 -240 760 -240 c 0
 128 -240 -248 280 -248 744 c 0
 -248 1112 0 1360 320 1360 c 0
 584 1360 864 1168 864 792 c 0
 864 440 592 232 304 232 c 0
 112 232 -48 352 -96 520 c 1
EndSplineSet
Substitution2: "'ss02' Style Set 2 lookup 4-1" J.alt
EndChar

StartChar: K
Encoding: 75 75 22
GlifName: K_
Width: 5648
Flags: HMW
LayerCount: 2
Fore
SplineSet
-328 72 m 1
 2008 72 l 1
 2008 0 l 1
 -328 0 l 1
 -328 72 l 1
992 6000 m 1
 3360 6000 l 1
 3360 5928 l 1
 992 5928 l 1
 992 6000 l 1
1712 6000 m 1
 2664 6000 l 1
 1304 0 l 1
 352 0 l 1
 1712 6000 l 1
1200 1736 m 1
 1064 1736 l 1
 5272 5992 l 1
 5392 5992 l 1
 1200 1736 l 1
2512 72 m 1
 5144 72 l 1
 5144 0 l 1
 2512 0 l 1
 2512 72 l 1
6136 5928 m 1
 4216 5928 l 1
 4216 6000 l 1
 6136 6000 l 1
 6136 5928 l 1
4480 0 m 1
 3416 0 l 1
 2400 3056 l 1
 3160 3768 l 1
 4480 0 l 1
EndSplineSet
EndChar

StartChar: L
Encoding: 76 76 23
GlifName: L_
Width: 4640
Flags: HMW
LayerCount: 2
Fore
SplineSet
1704 6000 m 1
 2656 6000 l 1
 1264 0 l 1
 312 0 l 1
 1704 6000 l 1
984 6000 m 1
 3376 6000 l 1
 3376 5928 l 1
 984 5928 l 1
 984 6000 l 1
3984 0 m 1
 -368 0 l 1
 -368 72 l 1
 2360 72 l 2
 3616 72 4048 784 4328 1800 c 1
 4400 1800 l 1
 3984 0 l 1
EndSplineSet
EndChar

StartChar: M
Encoding: 77 77 24
GlifName: M_
Width: 6856
Flags: HMW
LayerCount: 2
Fore
SplineSet
4152 72 m 1
 6304 72 l 1
 6304 0 l 1
 4152 0 l 1
 4152 72 l 1
6920 5928 m 1
 5664 0 l 1
 4712 0 l 1
 5992 6000 l 1
 7424 6000 l 1
 7424 5928 l 1
 6920 5928 l 1
3336 1312 m 1
 5952 6000 l 1
 6040 6000 l 1
 2648 -80 l 1
 2560 -80 l 1
 1616 6000 l 1
 2576 6000 l 1
 3336 1312 l 1
1592 5928 m 1
 992 5928 l 1
 992 6000 l 1
 1688 6000 l 1
 408 0 l 1
 336 0 l 1
 1592 5928 l 1
-208 72 m 1
 1048 72 l 1
 1048 0 l 1
 -208 0 l 1
 -208 72 l 1
EndSplineSet
EndChar

StartChar: N
Encoding: 78 78 25
GlifName: N_
Width: 5800
Flags: HMW
LayerCount: 2
Fore
SplineSet
5704 6000 m 1
 5784 6000 l 1
 4408 -80 l 1
 4272 -80 l 1
 1792 6000 l 1
 2936 6000 l 1
 4704 1576 l 1
 5704 6000 l 1
4744 6000 m 1
 6568 6000 l 1
 6568 5928 l 1
 4744 5928 l 1
 4744 6000 l 1
-288 72 m 1
 1544 72 l 1
 1544 0 l 1
 -288 0 l 1
 -288 72 l 1
1800 5928 m 1
 992 5928 l 1
 992 6000 l 1
 1896 6000 l 1
 544 0 l 1
 472 0 l 1
 1800 5928 l 1
EndSplineSet
EndChar

StartChar: O
Encoding: 79 79 26
GlifName: O_
Width: 5832
Flags: HMW
LayerCount: 2
Fore
SplineSet
2456 -80 m 0
 1184 -80 432 736 432 2040 c 0
 432 4288 2112 6080 3816 6080 c 0
 5008 6080 5840 5264 5840 3960 c 0
 5840 1712 4240 -80 2456 -80 c 0
3816 6016 m 0
 2440 6016 1472 3320 1472 1464 c 0
 1472 640 1704 -16 2456 -16 c 0
 3912 -16 4800 2680 4800 4536 c 0
 4800 5200 4568 6016 3816 6016 c 0
EndSplineSet
EndChar

StartChar: P
Encoding: 80 80 27
GlifName: P_
Width: 5048
Flags: HMW
LayerCount: 2
Fore
SplineSet
1712 6000 m 1
 2664 6000 l 1
 1264 0 l 1
 312 0 l 1
 1712 6000 l 1
-328 72 m 1
 2064 72 l 1
 2064 0 l 1
 -328 0 l 1
 -328 72 l 1
2664 2680 m 2
 1784 2680 l 1
 1784 2760 l 1
 2584 2760 l 2
 3640 2760 4216 3912 4216 4784 c 0
 4216 5256 4072 5928 3384 5928 c 2
 992 5928 l 1
 992 6000 l 1
 3464 6000 l 2
 4512 6000 5288 5616 5288 4656 c 0
 5288 3456 4272 2680 2664 2680 c 2
EndSplineSet
EndChar

StartChar: Q
Encoding: 81 81 28
GlifName: Q_
Width: 5784
Flags: HMW
LayerCount: 2
Fore
SplineSet
3568 -1928 m 1
 3568 -2000 l 1
 1928 -2000 1520 -1368 1920 16 c 1
 2272 -64 2664 -56 3032 16 c 1
 2632 -1440 2920 -1928 3568 -1928 c 1
3816 6016 m 0
 2440 6016 1472 3320 1472 1464 c 0
 1472 648 1704 -16 2456 -16 c 0
 3912 -16 4800 2680 4800 4536 c 0
 4800 5192 4568 6016 3816 6016 c 0
2456 -80 m 0
 1184 -80 432 736 432 2040 c 0
 432 4288 2112 6080 3816 6080 c 0
 5008 6080 5840 5264 5840 3960 c 0
 5840 1712 4240 -80 2456 -80 c 0
EndSplineSet
EndChar

StartChar: R
Encoding: 82 82 29
GlifName: R_
Width: 5880
Flags: HMW
LayerCount: 2
Fore
SplineSet
5336 96 m 1
 5048 -16 4856 -48 4536 -48 c 0
 2528 -48 4680 3040 2712 3040 c 2
 1904 3040 l 1
 1904 3080 l 1
 2952 3080 l 2
 5776 3080 3960 72 4912 72 c 0
 5072 72 5192 120 5312 168 c 1
 5336 96 l 1
1872 6000 m 1
 2824 6000 l 1
 1424 0 l 1
 472 0 l 1
 1872 6000 l 1
-312 72 m 1
 2304 72 l 1
 2304 0 l 1
 -312 0 l 1
 -312 72 l 1
3000 3064 m 2
 1904 3064 l 1
 1904 3120 l 1
 2920 3120 l 2
 4024 3120 4520 4168 4520 4928 c 0
 4520 5320 4432 5928 3688 5928 c 2
 1008 5928 l 1
 1008 6000 l 1
 3800 6000 l 2
 4848 6000 5568 5680 5568 4800 c 0
 5568 3680 4608 3064 3000 3064 c 2
EndSplineSet
Substitution2: "'ss01' Style Set 1 lookup 2-1" R.alt
EndChar

StartChar: S
Encoding: 83 83 30
GlifName: S_
Width: 4560
Flags: HMW
LayerCount: 2
Fore
SplineSet
4416 4704 m 1
 4384 4904 4240 5312 4104 5520 c 1
 4792 6080 l 1
 4848 6080 l 1
 4472 4376 l 1
 4392 4376 l 1
 4416 4704 l 1
4472 4376 m 1
 4392 4376 l 1
 4344 5344 3864 6000 2936 6000 c 0
 2344 6000 1704 5576 1704 4936 c 0
 1704 3488 4168 3968 4168 1856 c 0
 4168 736 3128 -120 1936 -120 c 0
 688 -120 304 696 232 1656 c 1
 304 1656 l 1
 360 776 752 -40 1896 -40 c 0
 2728 -40 3376 472 3376 1224 c 0
 3376 2864 920 2408 920 4216 c 0
 920 5448 2104 6080 2896 6080 c 0
 3920 6080 4424 5424 4472 4376 c 1
-112 -80 m 1
 -168 -80 l 1
 232 1656 l 1
 304 1656 l 1
 328 1224 l 1
 376 1016 512 664 600 528 c 1
 -112 -80 l 1
EndSplineSet
EndChar

StartChar: T
Encoding: 84 84 31
GlifName: T_
Width: 5136
Flags: HMW
LayerCount: 2
Fore
SplineSet
768 72 m 1
 3480 72 l 1
 3480 0 l 1
 768 0 l 1
 768 72 l 1
3000 6000 m 1
 3952 6000 l 1
 2560 0 l 1
 1608 0 l 1
 3000 6000 l 1
4600 5928 m 2
 2272 5928 l 2
 1368 5928 944 5160 664 4152 c 1
 592 4152 l 1
 1016 6000 l 1
 5936 6000 l 1
 5512 4152 l 1
 5440 4152 l 1
 5624 5168 5504 5928 4600 5928 c 2
EndSplineSet
EndChar

StartChar: U
Encoding: 85 85 32
GlifName: U_
Width: 5552
Flags: HMW
LayerCount: 2
Fore
SplineSet
4752 6000 m 1
 6320 6000 l 1
 6320 5928 l 1
 4752 5928 l 1
 4752 6000 l 1
976 6000 m 1
 3456 6000 l 1
 3456 5928 l 1
 976 5928 l 1
 976 6000 l 1
5552 6000 m 1
 5632 6000 l 1
 4672 1840 l 2
 4384 584 3768 -120 2504 -120 c 0
 1200 -120 480 528 784 1840 c 2
 1744 6000 l 1
 2688 6000 l 1
 1728 1920 l 2
 1496 920 1632 -16 2672 -16 c 0
 3712 -16 4320 648 4592 1840 c 2
 5552 6000 l 1
EndSplineSet
EndChar

StartChar: V
Encoding: 86 86 33
GlifName: V_
Width: 5904
Flags: HMW
LayerCount: 2
Fore
SplineSet
6712 5928 m 1
 4952 5928 l 1
 4952 6000 l 1
 6712 6000 l 1
 6712 5928 l 1
3464 5928 m 1
 952 5928 l 1
 952 6000 l 1
 3464 6000 l 1
 3464 5928 l 1
3048 992 m 1
 5936 6000 l 1
 6016 6000 l 1
 2512 -104 l 1
 2272 -104 l 1
 1512 6000 l 1
 2544 6000 l 1
 3048 992 l 1
EndSplineSet
EndChar

StartChar: W
Encoding: 87 87 34
GlifName: W_
Width: 8120
Flags: HMW
LayerCount: 2
Fore
SplineSet
3112 1200 m 1
 4400 3432 l 1
 4480 3432 l 1
 2456 -80 l 1
 2240 -80 l 1
 1656 6000 l 1
 2664 6000 l 1
 3112 1200 l 1
4848 3336 m 1
 4768 3336 l 1
 6312 6000 l 1
 6392 6000 l 1
 4848 3336 l 1
8928 5928 m 1
 7392 5928 l 1
 7392 6000 l 1
 8928 6000 l 1
 8928 5928 l 1
7024 5928 m 1
 952 5928 l 1
 952 6000 l 1
 7024 6000 l 1
 7024 5928 l 1
5352 1200 m 1
 8128 6000 l 1
 8208 6000 l 1
 4688 -80 l 1
 4520 -80 l 1
 3936 6000 l 1
 4896 6000 l 1
 5352 1200 l 1
EndSplineSet
EndChar

StartChar: X
Encoding: 88 88 35
GlifName: X_
Width: 5960
Flags: HMW
LayerCount: 2
Fore
SplineSet
3248 3016 m 1
 3128 3016 l 1
 5560 5984 l 1
 5664 5984 l 1
 3248 3016 l 1
496 0 m 1
 384 0 l 1
 3168 3336 l 1
 3264 3336 l 1
 496 0 l 1
3032 72 m 1
 5464 72 l 1
 5464 0 l 1
 3032 0 l 1
 3032 72 l 1
-408 72 m 1
 1512 72 l 1
 1512 0 l 1
 -408 0 l 1
 -408 72 l 1
3664 5928 m 1
 1232 5928 l 1
 1232 6000 l 1
 3664 6000 l 1
 3664 5928 l 1
6448 5928 m 1
 4688 5928 l 1
 4688 6000 l 1
 6448 6000 l 1
 6448 5928 l 1
4912 0 m 1
 3800 0 l 1
 1792 6000 l 1
 2872 6000 l 1
 4912 0 l 1
EndSplineSet
EndChar

StartChar: Y
Encoding: 89 89 36
GlifName: Y_
Width: 5880
Flags: HMW
LayerCount: 2
Fore
SplineSet
6688 5928 m 1
 5008 5928 l 1
 5008 6000 l 1
 6688 6000 l 1
 6688 5928 l 1
3456 5928 m 1
 952 5928 l 1
 952 6000 l 1
 3456 6000 l 1
 3456 5928 l 1
1280 72 m 1
 3752 72 l 1
 3752 0 l 1
 1280 0 l 1
 1280 72 l 1
3616 3112 m 1
 5928 5984 l 1
 6032 5984 l 1
 3624 3000 l 1
 2952 0 l 1
 2000 0 l 1
 2680 3016 l 1
 1512 6000 l 1
 2600 6000 l 1
 3616 3112 l 1
EndSplineSet
EndChar

StartChar: Z
Encoding: 90 90 37
GlifName: Z_
Width: 4568
Flags: HMW
LayerCount: 2
Fore
SplineSet
3904 5928 m 1
 2600 5928 l 2
 1504 5928 1112 5448 848 4592 c 1
 776 4592 l 1
 1104 6000 l 1
 5096 6000 l 1
 5096 5928 l 1
 784 72 l 1
 2328 72 l 2
 3424 72 3800 560 4112 1568 c 1
 4184 1568 l 1
 3824 0 l 1
 -408 0 l 1
 -408 72 l 1
 3904 5928 l 1
EndSplineSet
EndChar

StartChar: a
Encoding: 97 97 38
GlifName: a
Width: 4952
VWidth: 9240
Flags: HMW
LayerCount: 2
Fore
SplineSet
3016 2512 m 0
 3016 3064 2832 3520 2488 3520 c 0
 1816 3520 1128 2152 1128 1080 c 0
 1128 504 1304 120 1664 120 c 0
 2472 120 3016 1640 3016 2512 c 0
3080 2512 m 0
 3080 1648 2536 -80 1408 -80 c 0
 856 -80 136 240 136 1280 c 0
 136 2880 1392 3760 2200 3760 c 0
 2808 3760 3080 3248 3080 2512 c 0
4784 1304 m 1
 4480 504 3976 -80 3280 -80 c 0
 2856 -80 2664 120 2664 520 c 0
 2664 560 2672 656 2680 704 c 2
 2856 1456 l 1
 3016 2040 l 1
 3056 2400 l 1
 3376 3680 l 1
 4240 3680 l 1
 3440 384 l 2
 3432 336 3424 280 3424 240 c 0
 3424 152 3464 88 3568 88 c 0
 4008 88 4472 672 4712 1328 c 1
 4784 1304 l 1
EndSplineSet
EndChar

StartChar: b
Encoding: 98 98 39
GlifName: b
Width: 4648
VWidth: 9240
Flags: HMW
LayerCount: 2
Fore
SplineSet
1672 5928 m 1
 1064 5928 l 1
 1064 6000 l 1
 2568 6000 l 1
 1432 1040 l 1
 1432 496 1560 -8 1984 -8 c 0
 2736 -8 3408 1576 3408 2648 c 0
 3408 3176 3232 3552 2872 3552 c 0
 2328 3552 1824 2792 1608 1840 c 1
 1568 1840 l 1
 1864 3216 2496 3752 3144 3752 c 0
 3680 3752 4400 3504 4400 2480 c 0
 4400 800 3208 -80 1968 -80 c 0
 1224 -80 776 392 536 960 c 1
 1672 5928 l 1
EndSplineSet
EndChar

StartChar: c
Encoding: 99 99 40
GlifName: c
Width: 3832
VWidth: 9240
Flags: HMW
LayerCount: 2
Fore
SplineSet
3552 2960 m 1
 3496 3328 3168 3672 2600 3672 c 0
 1616 3672 1128 2096 1128 1104 c 0
 1128 432 1256 48 1656 48 c 0
 2176 48 2832 400 3240 1144 c 1
 3312 1144 l 1
 2912 368 2200 -80 1440 -80 c 0
 840 -80 136 240 136 1264 c 0
 136 2784 1328 3760 2440 3760 c 0
 3176 3760 3680 3376 3680 2784 c 0
 3680 2360 3408 2152 3120 2152 c 0
 2872 2152 2584 2312 2584 2664 c 0
 2584 2992 2864 3176 3112 3176 c 0
 3368 3176 3504 3072 3552 2960 c 1
EndSplineSet
EndChar

StartChar: d
Encoding: 100 100 41
GlifName: d
Width: 4984
VWidth: 9240
Flags: HMW
LayerCount: 2
Fore
SplineSet
4832 1304 m 1
 4528 504 4024 -80 3328 -80 c 0
 2904 -80 2680 104 2680 536 c 0
 2680 576 2688 664 2696 712 c 2
 2856 1456 l 1
 3016 2056 l 1
 3056 2400 l 1
 3856 5928 l 1
 3120 5928 l 1
 3120 6000 l 1
 4744 6000 l 1
 3488 384 l 2
 3480 336 3472 280 3472 240 c 0
 3472 152 3512 88 3616 88 c 0
 4048 88 4520 672 4760 1328 c 1
 4832 1304 l 1
3016 2512 m 0
 3016 3064 2832 3520 2488 3520 c 0
 1816 3520 1128 2152 1128 1080 c 0
 1128 504 1304 120 1664 120 c 0
 2472 120 3016 1640 3016 2512 c 0
3080 2512 m 0
 3080 1648 2536 -80 1408 -80 c 0
 856 -80 136 240 136 1280 c 0
 136 2880 1392 3760 2192 3760 c 0
 2800 3760 3080 3248 3080 2512 c 0
EndSplineSet
EndChar

StartChar: e
Encoding: 101 101 42
GlifName: e
Width: 3880
VWidth: 9240
Flags: HMW
LayerCount: 2
Fore
SplineSet
1128 1040 m 0
 1128 496 1232 40 1672 40 c 0
 2368 40 2984 560 3304 1144 c 1
 3376 1144 l 1
 3048 528 2376 -80 1488 -80 c 0
 792 -80 136 304 136 1264 c 0
 136 2792 1368 3760 2464 3760 c 0
 3216 3760 3752 3536 3752 2960 c 0
 3752 1760 1880 1712 992 1712 c 1
 992 1784 l 1
 1752 1784 2872 1936 2872 3016 c 0
 2872 3360 2800 3696 2536 3696 c 0
 1888 3696 1128 2320 1128 1040 c 0
EndSplineSet
EndChar

StartChar: f
Encoding: 102 102 43
GlifName: f
Width: 2960
VWidth: 9240
Flags: HMW
LayerCount: 2
Fore
SplineSet
488 3680 m 1
 3192 3680 l 1
 3192 3608 l 1
 488 3608 l 1
 488 3680 l 1
4072 5496 m 1
 4008 5712 3760 6008 3272 6008 c 0
 2712 6008 2328 5296 2152 4320 c 2
 1352 -96 l 2
 1152 -1208 400 -2080 -640 -2080 c 0
 -1336 -2080 -1640 -1608 -1640 -1240 c 0
 -1640 -880 -1416 -680 -1128 -680 c 0
 -880 -680 -592 -824 -592 -1176 c 0
 -592 -1528 -864 -1696 -1136 -1696 c 0
 -1288 -1696 -1440 -1608 -1480 -1496 c 1
 -1416 -1712 -1160 -2008 -672 -2008 c 0
 -112 -2008 272 -1296 440 -320 c 2
 1232 4096 l 2
 1424 5216 2192 6080 3232 6080 c 0
 3928 6080 4240 5608 4240 5240 c 0
 4240 4880 4008 4680 3720 4680 c 0
 3472 4680 3192 4824 3192 5176 c 0
 3192 5528 3456 5696 3728 5696 c 0
 3880 5696 4032 5600 4072 5496 c 1
EndSplineSet
EndChar

StartChar: g
Encoding: 103 103 44
GlifName: g
Width: 4688
VWidth: 9240
Flags: HMW
LayerCount: 2
Fore
SplineSet
1088 -96 m 1
 760 -208 496 -648 496 -1128 c 0
 496 -1616 696 -1992 1336 -1992 c 0
 2096 -1992 3032 -1592 3032 -760 c 0
 3032 -328 2800 -152 2360 -152 c 0
 2192 -152 1768 -152 1592 -152 c 0
 872 -152 280 -40 280 456 c 0
 280 1080 1208 1344 1848 1344 c 1
 1832 1304 l 1
 1568 1304 936 1200 936 848 c 0
 936 648 1320 600 1760 600 c 0
 2040 600 2216 608 2440 608 c 0
 3088 608 3440 352 3440 -336 c 0
 3440 -1368 2408 -2080 1304 -2080 c 0
 384 -2080 -344 -1848 -344 -1224 c 0
 -344 -432 688 -96 1048 -96 c 2
 1088 -96 l 1
4848 3120 m 0
 4848 2728 4616 2592 4400 2592 c 0
 4184 2592 3960 2736 3960 3032 c 0
 3960 3272 4152 3448 4400 3448 c 0
 4584 3448 4720 3312 4744 3224 c 1
 4696 3512 4464 3648 4184 3648 c 0
 3856 3648 3408 3368 3072 2736 c 1
 3008 2776 l 1
 3344 3440 3848 3720 4184 3720 c 0
 4616 3720 4848 3440 4848 3120 c 0
1752 1352 m 0
 2368 1352 2704 2424 2704 3048 c 0
 2704 3368 2576 3688 2296 3688 c 0
 1680 3688 1344 2616 1344 1992 c 0
 1344 1672 1472 1352 1752 1352 c 0
1736 1280 m 0
 1040 1280 480 1560 480 2280 c 0
 480 3160 1360 3760 2296 3760 c 0
 2992 3760 3568 3480 3568 2760 c 0
 3568 1880 2672 1280 1736 1280 c 0
EndSplineSet
EndChar

StartChar: h
Encoding: 104 104 45
GlifName: h
Width: 4744
VWidth: 9240
Flags: HMW
LayerCount: 2
Fore
SplineSet
3032 2456 m 2
 3240 3072 3248 3616 2912 3616 c 0
 2336 3616 1648 2608 1368 1384 c 1
 1304 1384 l 1
 1600 2608 2216 3760 3136 3760 c 0
 3928 3760 4160 3208 3936 2520 c 2
 3232 360 l 2
 3216 312 3208 256 3208 216 c 0
 3208 128 3256 64 3360 64 c 0
 3816 64 4256 640 4504 1320 c 1
 4576 1304 l 1
 4272 504 3800 -80 3104 -80 c 0
 2664 -80 2424 128 2424 504 c 0
 2424 624 2448 720 2464 784 c 2
 3032 2456 l 2
1528 5928 m 1
 984 5928 l 1
 984 6000 l 1
 2424 6000 l 1
 1048 0 l 1
 168 0 l 1
 1528 5928 l 1
EndSplineSet
EndChar

StartChar: i
Encoding: 105 105 46
GlifName: i
Width: 2800
VWidth: 9240
Flags: HMW
LayerCount: 2
Fore
SplineSet
1240 5520 m 0
 1240 5832 1496 6080 1808 6080 c 0
 2120 6080 2360 5832 2360 5520 c 0
 2360 5208 2120 4960 1808 4960 c 0
 1496 4960 1240 5208 1240 5520 c 0
2560 1304 m 1
 2256 504 1752 -80 1056 -80 c 0
 632 -80 416 104 416 536 c 0
 416 576 424 664 432 712 c 2
 1104 3608 l 1
 528 3608 l 1
 528 3680 l 1
 2000 3680 l 1
 1216 384 l 2
 1208 336 1200 280 1200 240 c 0
 1200 152 1240 88 1344 88 c 0
 1784 88 2248 648 2496 1328 c 1
 2560 1304 l 1
EndSplineSet
EndChar

StartChar: j
Encoding: 106 106 47
GlifName: j
Width: 2232
VWidth: 9240
Flags: HMW
LayerCount: 2
Fore
SplineSet
1312 5520 m 0
 1312 5832 1560 6080 1872 6080 c 0
 2184 6080 2432 5832 2432 5520 c 0
 2432 5208 2184 4960 1872 4960 c 0
 1560 4960 1312 5208 1312 5520 c 0
-1328 -1424 m 1
 -1256 -1712 -952 -2008 -584 -2008 c 0
 152 -2008 152 -800 376 160 c 2
 1184 3608 l 1
 440 3608 l 1
 440 3680 l 1
 2048 3680 l 1
 1264 -96 l 2
 1056 -1096 496 -2080 -544 -2080 c 0
 -1144 -2080 -1480 -1560 -1480 -1216 c 0
 -1480 -856 -1192 -616 -904 -616 c 0
 -656 -616 -416 -792 -416 -1104 c 0
 -416 -1432 -688 -1624 -984 -1624 c 0
 -1144 -1624 -1264 -1528 -1328 -1424 c 1
EndSplineSet
EndChar

StartChar: k
Encoding: 107 107 48
GlifName: k
Width: 4632
VWidth: 9240
Flags: HMW
LayerCount: 2
Fore
SplineSet
4464 1304 m 1
 4160 504 3672 -80 2992 -80 c 0
 2568 -80 2344 104 2344 536 c 0
 2344 576 2352 664 2360 712 c 2
 2448 1120 l 2
 2552 1584 2824 2232 2304 2232 c 0
 1808 2232 1680 1800 1608 1520 c 1
 1552 1520 l 1
 1712 2224 2064 2320 2440 2320 c 0
 2992 2320 3504 2008 3264 968 c 2
 3104 272 l 2
 3104 256 3104 216 3104 200 c 0
 3104 112 3160 72 3264 72 c 0
 3704 72 4160 664 4400 1328 c 1
 4464 1304 l 1
1504 2584 m 1
 1592 2544 l 1
 1616 2192 1768 2008 2040 2008 c 0
 2392 2008 2536 2376 2744 2888 c 0
 2968 3432 3264 3760 3680 3760 c 0
 4072 3760 4384 3496 4384 3048 c 0
 4384 2672 4152 2504 3904 2504 c 0
 3656 2504 3440 2688 3440 2968 c 0
 3440 3224 3640 3408 3896 3408 c 0
 4096 3408 4224 3288 4264 3184 c 1
 4232 3488 4000 3688 3688 3688 c 0
 3312 3688 3040 3400 2824 2864 c 0
 2608 2320 2424 1936 2040 1936 c 0
 1728 1936 1504 2168 1504 2584 c 1
1752 5928 m 1
 1048 5928 l 1
 1048 6000 l 1
 2648 6000 l 1
 1256 0 l 1
 376 0 l 1
 1752 5928 l 1
EndSplineSet
EndChar

StartChar: l
Encoding: 108 108 49
GlifName: l
Width: 2640
VWidth: 9240
Flags: HMW
LayerCount: 2
Fore
SplineSet
2480 1304 m 1
 2176 504 1672 -80 976 -80 c 0
 552 -80 336 104 336 536 c 0
 336 576 344 664 352 712 c 2
 1552 5928 l 1
 816 5928 l 1
 816 6000 l 1
 2440 6000 l 1
 1136 384 l 2
 1128 336 1120 280 1120 240 c 0
 1120 152 1160 88 1264 88 c 0
 1704 88 2184 680 2416 1328 c 1
 2480 1304 l 1
EndSplineSet
EndChar

StartChar: m
Encoding: 109 109 50
GlifName: m
Width: 6928
VWidth: 9240
Flags: HMW
LayerCount: 2
Fore
SplineSet
5216 2456 m 2
 5424 3072 5472 3608 5136 3608 c 0
 4576 3608 3912 2640 3608 1384 c 1
 3552 1384 l 1
 3856 2592 4448 3760 5360 3760 c 0
 6152 3760 6352 3208 6128 2520 c 2
 5416 360 l 2
 5400 312 5392 256 5392 216 c 0
 5392 128 5440 64 5544 64 c 0
 6008 64 6456 672 6696 1328 c 1
 6760 1304 l 1
 6456 504 5984 -80 5288 -80 c 0
 4848 -80 4608 128 4608 504 c 0
 4608 624 4632 720 4648 784 c 2
 5216 2456 l 2
3272 0 m 17
 2392 0 l 1
 2992 2464 l 2
 3144 3096 3248 3608 2912 3608 c 0
 2352 3608 1680 2640 1384 1384 c 1
 1328 1384 l 1
 1632 2592 2216 3760 3136 3760 c 0
 3928 3760 4064 3232 3896 2552 c 2
 3272 0 l 17
1040 3608 m 1
 496 3608 l 1
 496 3680 l 1
 1936 3680 l 1
 1056 0 l 1
 176 0 l 1
 1040 3608 l 1
EndSplineSet
EndChar

StartChar: n
Encoding: 110 110 51
GlifName: n
Width: 4784
VWidth: 9240
Flags: HMW
LayerCount: 2
Fore
SplineSet
1032 3608 m 1
 496 3608 l 1
 496 3680 l 1
 1936 3680 l 1
 1048 0 l 1
 168 0 l 1
 1032 3608 l 1
3048 2456 m 2
 3256 3072 3264 3616 2928 3616 c 0
 2352 3616 1672 2608 1384 1384 c 1
 1320 1384 l 1
 1624 2608 2232 3760 3152 3760 c 0
 3944 3760 4176 3208 3952 2520 c 2
 3248 360 l 2
 3232 312 3224 256 3224 216 c 0
 3224 128 3272 64 3376 64 c 0
 3832 64 4288 640 4536 1320 c 1
 4616 1304 l 1
 4312 504 3816 -80 3120 -80 c 0
 2680 -80 2440 128 2440 504 c 0
 2440 624 2456 712 2480 784 c 2
 3048 2456 l 2
EndSplineSet
EndChar

StartChar: o
Encoding: 111 111 52
GlifName: o
Width: 4296
VWidth: 9240
Flags: HMW
LayerCount: 2
Fore
SplineSet
1632 -80 m 0
 888 -80 136 272 136 1296 c 0
 136 2816 1328 3760 2552 3760 c 0
 3296 3760 4048 3408 4048 2384 c 0
 4048 864 2856 -80 1632 -80 c 0
1632 0 m 0
 2568 0 3088 1680 3088 2672 c 0
 3088 3288 2936 3680 2552 3680 c 0
 1616 3680 1096 2000 1096 1008 c 0
 1096 392 1248 0 1632 0 c 0
EndSplineSet
EndChar

StartChar: p
Encoding: 112 112 53
GlifName: p
Width: 4584
VWidth: 9240
Flags: HMW
LayerCount: 2
Fore
SplineSet
1480 1160 m 0
 1480 608 1672 160 2016 160 c 0
 2688 160 3384 1520 3384 2592 c 0
 3384 3168 3192 3560 2832 3560 c 0
 2024 3560 1480 2032 1480 1160 c 0
1416 1160 m 0
 1416 2024 1960 3760 3088 3760 c 0
 3640 3760 4376 3432 4376 2392 c 0
 4376 792 3104 -80 2304 -80 c 0
 1696 -80 1416 424 1416 1160 c 0
-744 -1928 m 1
 1216 -1928 l 1
 1216 -2000 l 1
 -744 -2000 l 1
 -744 -1928 l 1
1072 3608 m 1
 512 3608 l 1
 512 3680 l 1
 1968 3680 l 1
 1640 2304 l 1
 1504 1800 l 1
 1456 1424 l 1
 656 -2000 l 1
 -224 -2000 l 1
 1072 3608 l 1
EndSplineSet
EndChar

StartChar: q
Encoding: 113 113 54
GlifName: q
Width: 4512
VWidth: 9240
Flags: HMW
LayerCount: 2
Fore
SplineSet
3456 -1928 m 1
 3456 -2000 l 1
 1528 -2000 l 1
 1528 -1928 l 1
 3456 -1928 l 1
2896 -2000 m 17
 2048 -2000 l 1
 2848 1424 l 1
 2856 1448 3008 2040 3016 2072 c 1
 3056 2408 l 1
 3344 3600 l 1
 4224 3760 l 1
 2896 -2000 l 17
3016 2512 m 0
 3016 3064 2832 3520 2488 3520 c 0
 1816 3520 1128 2152 1128 1080 c 0
 1128 504 1304 120 1664 120 c 0
 2472 120 3016 1640 3016 2512 c 0
3080 2512 m 0
 3080 1648 2536 -80 1408 -80 c 0
 856 -80 136 240 136 1280 c 0
 136 2880 1392 3760 2192 3760 c 0
 2800 3760 3080 3248 3080 2512 c 0
EndSplineSet
EndChar

StartChar: r
Encoding: 114 114 55
GlifName: r
Width: 3440
VWidth: 9240
Flags: HMW
LayerCount: 2
Fore
SplineSet
3632 3032 m 0
 3632 2720 3440 2464 3088 2464 c 0
 2776 2464 2536 2648 2536 2984 c 0
 2536 3296 2784 3528 3080 3528 c 0
 3248 3528 3376 3432 3432 3304 c 1
 3360 3536 3104 3696 2832 3696 c 0
 2000 3696 1600 2168 1408 1384 c 1
 1352 1384 l 1
 1560 2328 1968 3760 2832 3760 c 0
 3232 3760 3632 3472 3632 3032 c 0
1080 3608 m 1
 496 3608 l 1
 496 3680 l 1
 1936 3680 l 1
 1096 0 l 1
 216 0 l 1
 1080 3608 l 1
EndSplineSet
EndChar

StartChar: s
Encoding: 115 115 56
GlifName: s
Width: 3352
VWidth: 9240
Flags: HMW
LayerCount: 2
Fore
SplineSet
2840 3144 m 1
 2760 3424 2384 3680 1840 3680 c 0
 1392 3680 1080 3440 1080 3104 c 0
 1080 2288 2832 2232 2832 1168 c 0
 2832 416 2096 -96 1272 -96 c 0
 384 -96 -24 416 -24 856 c 0
 -24 1200 248 1384 504 1384 c 0
 720 1384 992 1240 992 904 c 0
 992 608 752 432 504 432 c 0
 256 432 136 584 104 688 c 1
 168 352 520 -24 1272 -24 c 0
 1832 -24 2184 328 2184 688 c 0
 2184 1464 456 1416 456 2584 c 0
 456 3376 1208 3752 1832 3752 c 0
 2536 3752 2984 3368 2984 2976 c 0
 2984 2648 2776 2496 2520 2496 c 0
 2304 2496 2064 2640 2064 2936 c 0
 2064 3192 2272 3368 2480 3368 c 0
 2688 3368 2792 3256 2840 3144 c 1
EndSplineSet
EndChar

StartChar: t
Encoding: 116 116 57
GlifName: t
Width: 2704
VWidth: 9240
Flags: HMW
LayerCount: 2
Fore
SplineSet
336 3680 m 1
 2656 3680 l 1
 2656 3608 l 1
 336 3608 l 1
 336 3680 l 1
2528 1304 m 1
 2224 504 1720 -80 1024 -80 c 0
 600 -80 376 104 376 536 c 0
 376 576 384 664 392 712 c 2
 1208 4480 l 1
 2080 4480 l 1
 1184 384 l 2
 1176 336 1168 280 1168 240 c 0
 1168 152 1208 88 1312 88 c 0
 1768 88 2216 680 2456 1328 c 1
 2528 1304 l 1
EndSplineSet
EndChar

StartChar: u
Encoding: 117 117 58
GlifName: u
Width: 5032
VWidth: 9240
Flags: HMW
LayerCount: 2
Fore
SplineSet
1976 3680 m 1
 1376 1136 l 2
 1232 504 1224 88 1568 88 c 0
 2080 88 2784 1032 3096 2296 c 1
 3160 2296 l 1
 2840 1064 2216 -80 1304 -80 c 0
 528 -80 360 472 504 1128 c 2
 1064 3608 l 1
 520 3608 l 1
 520 3680 l 1
 1976 3680 l 1
4872 1304 m 1
 4568 504 4056 -80 3360 -80 c 0
 2936 -80 2720 104 2720 536 c 0
 2720 576 2728 664 2736 712 c 2
 3400 3680 l 1
 4296 3680 l 1
 3520 384 l 2
 3512 336 3504 280 3504 240 c 0
 3504 152 3544 88 3648 88 c 0
 4112 88 4576 704 4808 1328 c 1
 4872 1304 l 1
EndSplineSet
EndChar

StartChar: v
Encoding: 118 118 59
GlifName: v
Width: 4472
VWidth: 9240
Flags: HMW
LayerCount: 2
Fore
SplineSet
1920 1056 m 2
 1816 424 1720 48 2168 48 c 0
 2936 48 4272 1488 4272 2752 c 0
 4272 3000 4232 3160 4184 3240 c 1
 4176 3048 3984 2680 3624 2680 c 0
 3248 2680 3072 2968 3072 3216 c 0
 3072 3504 3304 3752 3648 3752 c 0
 4168 3752 4344 3256 4344 2752 c 0
 4344 1488 3032 -80 1984 -80 c 0
 1160 -80 912 408 1040 1096 c 2
 1448 3296 l 2
 1456 3344 1464 3400 1464 3440 c 0
 1464 3528 1400 3592 1296 3592 c 0
 824 3592 392 2960 168 2352 c 1
 96 2376 l 1
 416 3176 872 3760 1600 3760 c 0
 2040 3760 2256 3552 2256 3192 c 0
 2256 3072 2232 2984 2224 2912 c 2
 1920 1056 l 2
EndSplineSet
Substitution2: "'ss04' Style Set 4 lookup 5-1" v.alt
EndChar

StartChar: w
Encoding: 119 119 60
GlifName: w
Width: 6736
VWidth: 9240
Flags: HMW
LayerCount: 2
Fore
SplineSet
1616 1152 m 2
 1408 536 1456 80 1824 80 c 0
 2440 80 3112 1080 3408 2296 c 1
 3464 2296 l 1
 3160 1096 2552 -80 1568 -80 c 0
 760 -80 512 456 736 1128 c 2
 1448 3296 l 2
 1464 3344 1472 3400 1472 3440 c 0
 1472 3528 1416 3592 1312 3592 c 0
 824 3592 416 2992 168 2352 c 1
 96 2376 l 1
 416 3176 872 3760 1600 3760 c 0
 2024 3760 2256 3560 2256 3184 c 0
 2256 3064 2232 2968 2216 2912 c 2
 1616 1152 l 2
3736 3680 m 1
 4616 3680 l 1
 4080 1432 l 2
 3920 760 3960 40 4616 40 c 0
 5808 40 6536 1808 6536 2752 c 0
 6536 2960 6496 3136 6464 3200 c 1
 6448 2912 6208 2680 5872 2680 c 0
 5504 2680 5328 2968 5328 3216 c 0
 5328 3504 5568 3752 5904 3752 c 0
 6392 3752 6608 3288 6608 2752 c 0
 6608 1872 5952 -80 4440 -80 c 0
 3712 -80 3016 320 3264 1704 c 1
 3736 3680 l 1
EndSplineSet
EndChar

StartChar: x
Encoding: 120 120 61
GlifName: x
Width: 4456
VWidth: 9240
Flags: HMW
LayerCount: 2
Fore
SplineSet
2264 1944 m 1
 2744 2728 3160 3760 3840 3760 c 0
 4360 3760 4552 3376 4552 3088 c 0
 4552 2768 4360 2544 4024 2544 c 0
 3672 2544 3520 2832 3520 3064 c 0
 3520 3312 3720 3568 4008 3568 c 0
 4176 3568 4296 3480 4360 3352 c 1
 4288 3520 4144 3688 3856 3688 c 0
 3208 3688 2808 2680 2336 1904 c 1
 2264 1944 l 1
2296 2112 m 1
 1672 1072 1176 -80 496 -80 c 0
 -24 -80 -216 304 -216 592 c 0
 -216 912 -24 1136 312 1136 c 0
 664 1136 816 848 816 616 c 0
 816 368 624 112 320 112 c 0
 136 112 8 232 -32 360 c 1
 40 120 224 -8 480 -8 c 0
 1120 -8 1624 1136 2232 2152 c 1
 2296 2112 l 1
4112 872 m 1
 3848 168 3472 -80 2992 -80 c 0
 2472 -80 2224 200 2096 616 c 0
 1896 1296 1520 2824 1312 3400 c 0
 1280 3488 1240 3592 1096 3592 c 0
 848 3592 576 3248 400 2760 c 1
 336 2792 l 1
 600 3496 920 3776 1480 3776 c 0
 2000 3776 2216 3496 2344 3080 c 0
 2552 2368 2848 1088 3128 312 c 0
 3160 224 3264 120 3368 120 c 0
 3560 120 3864 376 4048 896 c 1
 4112 872 l 1
EndSplineSet
EndChar

StartChar: y
Encoding: 121 121 62
GlifName: y
Width: 4712
VWidth: 9240
Flags: HMW
LayerCount: 2
Fore
SplineSet
2656 -592 m 1
 2040 464 1464 2800 1248 3376 c 0
 1216 3464 1160 3568 1016 3568 c 0
 768 3568 480 3216 328 2744 c 1
 256 2776 l 1
 520 3496 888 3760 1416 3760 c 0
 1904 3760 2144 3472 2272 3056 c 0
 2488 2336 2776 1000 3296 224 c 1
 3256 168 2704 -544 2656 -592 c 1
640 -2080 m 0
 32 -2080 -312 -1664 -312 -1160 c 0
 -312 -848 -88 -552 248 -552 c 0
 496 -552 760 -712 760 -1048 c 0
 760 -1344 552 -1544 280 -1544 c 0
 24 -1544 -168 -1408 -224 -1224 c 1
 -224 -1624 96 -2008 640 -2008 c 0
 2072 -2008 4536 1928 4536 2904 c 0
 4536 3072 4480 3240 4424 3328 c 1
 4472 2952 4200 2720 3920 2720 c 0
 3560 2720 3368 3008 3368 3240 c 0
 3368 3512 3584 3760 3928 3760 c 0
 4432 3760 4616 3272 4616 2912 c 0
 4616 1872 2120 -2080 640 -2080 c 0
EndSplineSet
EndChar

StartChar: z
Encoding: 122 122 63
GlifName: z
Width: 3320
VWidth: 9240
Flags: HMW
LayerCount: 2
Fore
SplineSet
200 2096 m 1
 576 3696 l 1
 1008 3456 1488 3384 1904 3384 c 0
 2320 3384 3008 3432 3280 3680 c 1
 3344 3616 l 1
 2632 3080 1992 2616 1408 2616 c 0
 1056 2616 688 2736 480 2920 c 1
 272 2096 l 1
 200 2096 l 1
-176 24 m 1
 -328 -16 l 1
 3208 3584 l 1
 3344 3616 l 1
 -176 24 l 1
3128 1264 m 1
 3064 1088 2928 944 2688 944 c 0
 2456 944 2224 1136 2224 1408 c 0
 2224 1720 2472 1880 2704 1880 c 0
 2976 1880 3208 1712 3208 1352 c 0
 3208 920 2736 -80 1984 -80 c 0
 1464 -80 1248 312 720 312 c 0
 336 312 -8 176 -264 -80 c 1
 -328 -16 l 1
 320 464 896 888 1456 888 c 0
 1928 888 2056 496 2544 496 c 0
 2928 496 3112 1000 3128 1264 c 1
EndSplineSet
EndChar

StartChar: comma
Encoding: 44 44 65
GlifName: comma
Width: 1912
Flags: HMW
LayerCount: 2
Fore
SplineSet
128 472 m 0
 128 784 408 1056 760 1056 c 0
 1120 1056 1392 824 1392 336 c 0
 1392 -496 528 -1248 -288 -1248 c 1
 -288 -1176 l 1
 408 -1176 1304 -520 1296 344 c 1
 1240 112 1024 -80 712 -80 c 0
 328 -80 128 184 128 472 c 0
EndSplineSet
EndChar

StartChar: exclam
Encoding: 33 33 67
GlifName: exclam
Width: 2744
Flags: HMW
LayerCount: 2
Fore
SplineSet
2816 5464 m 0
 2688 4584 1848 3040 1520 1824 c 1
 1440 1824 l 1
 1680 3024 1664 4168 1664 5176 c 0
 1664 5672 1880 6064 2304 6064 c 0
 2632 6064 2864 5808 2816 5464 c 0
584 488 m 0
 584 808 832 1056 1152 1056 c 0
 1472 1056 1720 808 1720 488 c 0
 1720 168 1472 -80 1152 -80 c 0
 832 -80 584 168 584 488 c 0
EndSplineSet
EndChar

StartChar: quotesingle
Encoding: 39 39 70
GlifName: quotesingle
Width: 1776
Flags: HMW
LayerCount: 2
Fore
SplineSet
2112 5432 m 0
 1960 4832 1520 4592 1280 3792 c 1
 1200 3792 l 1
 1400 4528 1208 4776 1120 5376 c 24
 1112 5432 1112 5480 1112 5528 c 0
 1112 5872 1360 6080 1656 6080 c 0
 1936 6080 2136 5872 2136 5608 c 0
 2136 5552 2128 5488 2112 5432 c 0
EndSplineSet
EndChar

StartChar: question
Encoding: 63 63 75
GlifName: question
Width: 4512
Flags: HMW
LayerCount: 2
Fore
SplineSet
2336 2752 m 1
 2136 1784 l 1
 2056 1784 l 1
 2280 2800 l 1
 3216 3048 3888 3992 3888 4944 c 0
 3888 5504 3736 6000 3088 6000 c 0
 2176 6000 1528 5376 1464 4912 c 1
 1512 5024 1664 5152 1864 5152 c 0
 2128 5152 2384 4960 2384 4648 c 0
 2384 4296 2096 4120 1848 4120 c 0
 1544 4120 1328 4336 1328 4696 c 0
 1328 5352 2112 6080 3168 6080 c 0
 4056 6080 4872 5696 4872 4736 c 0
 4872 3584 3576 2816 2336 2752 c 1
EndSplineSet
Refer: 1 46 N 1 0 0 1 1192 0 2
EndChar

StartChar: parenleft
Encoding: 40 40 76
GlifName: parenleft
Width: 2928
Flags: HMW
LayerCount: 2
Fore
SplineSet
2240 -1296 m 1
 2208 -1360 l 1
 1304 -960 664 96 664 1480 c 0
 664 3824 2352 5760 3896 6400 c 1
 3928 6336 l 1
 2696 5632 1536 2960 1536 1056 c 0
 1536 -224 1744 -800 2240 -1296 c 1
EndSplineSet
EndChar

StartChar: asterisk
Encoding: 42 42 78
GlifName: asterisk
Width: 5080
VWidth: 9240
Flags: HMW
LayerCount: 2
Fore
SplineSet
2096 5312 m 0
 2576 4936 2296 4496 3040 4072 c 1
 3000 4016 l 1
 2240 4456 2096 4168 1536 4400 c 0
 1192 4552 1048 4904 1208 5192 c 0
 1384 5504 1784 5520 2096 5312 c 0
1200 3616 m 0
 1768 3824 2240 3640 3000 4080 c 1
 3040 4016 l 1
 2280 3576 2120 3176 1640 2792 c 0
 1344 2576 968 2528 792 2832 c 0
 624 3120 832 3488 1200 3616 c 0
2240 2456 m 0
 2408 3056 2872 3296 2992 4048 c 1
 3056 4048 l 1
 2896 3136 3216 3040 3216 2440 c 0
 3216 2048 2984 1760 2656 1760 c 0
 2344 1760 2120 2032 2240 2456 c 0
3960 2800 m 0
 3480 3176 3744 3592 3000 4016 c 1
 3040 4072 l 1
 3800 3632 3952 3928 4512 3696 c 0
 4856 3544 5000 3192 4840 2904 c 0
 4664 2600 4256 2600 3960 2800 c 0
4848 4480 m 0
 4280 4272 3800 4448 3040 4008 c 1
 3008 4072 l 1
 3768 4512 3928 4920 4408 5304 c 0
 4704 5520 5080 5568 5256 5264 c 0
 5424 4976 5216 4608 4848 4480 c 0
3808 5640 m 0
 3648 5040 3176 4800 3056 4048 c 1
 2992 4048 l 1
 3152 4960 2832 5056 2832 5656 c 0
 2832 6048 3064 6336 3392 6336 c 0
 3704 6336 3912 6064 3808 5640 c 0
EndSplineSet
EndChar

StartChar: at
Encoding: 64 64 79
GlifName: at
Width: 8080
VWidth: 9240
Flags: HMW
LayerCount: 2
Fore
SplineSet
4848 2824 m 0
 4848 1608 4200 560 3352 560 c 0
 2696 560 2144 1008 2144 1840 c 0
 2144 3040 3048 4232 4016 4232 c 0
 4688 4232 4848 3480 4848 2824 c 0
4784 2768 m 0
 4784 3104 4744 4048 4208 4048 c 0
 3680 4048 3144 2832 3144 1840 c 0
 3144 1304 3264 752 3632 752 c 0
 4176 752 4784 1728 4784 2768 c 0
4608 1680 m 2
 5184 4160 l 1
 6096 4160 l 1
 5520 1664 l 2
 5480 1504 5168 680 5728 680 c 0
 6768 680 7568 1920 7568 3208 c 0
 7568 4640 6664 6248 4672 6248 c 0
 2384 6248 512 4152 512 1688 c 0
 512 -768 1928 -1640 3352 -1640 c 0
 4656 -1640 5536 -1248 6224 -464 c 1
 6280 -512 l 1
 5608 -1296 4656 -1712 3352 -1712 c 0
 1888 -1712 440 -824 440 1688 c 0
 440 4192 2336 6320 4680 6320 c 0
 6704 6320 7640 4672 7640 3208 c 0
 7640 1912 6896 544 5480 544 c 0
 4672 544 4496 1184 4608 1680 c 2
EndSplineSet
EndChar

StartChar: dollar
Encoding: 36 36 80
GlifName: dollar
Width: 4584
Flags: HMW
LayerCount: 2
Fore
SplineSet
2888 6640 m 1
 2976 6640 l 1
 1296 -640 l 1
 1208 -640 l 1
 2888 6640 l 1
3592 6640 m 1
 3680 6640 l 1
 2000 -640 l 1
 1912 -640 l 1
 3592 6640 l 1
1760 4928 m 0
 1760 3456 4280 3936 4280 1792 c 0
 4280 592 3200 -120 2072 -120 c 0
 984 -120 240 592 240 1216 c 0
 240 1600 464 1912 848 1912 c 0
 1120 1912 1408 1712 1408 1344 c 0
 1408 976 1120 768 816 768 c 0
 576 768 416 928 368 1032 c 1
 496 504 1144 -48 2072 -48 c 0
 2920 -48 3432 592 3432 1272 c 0
 3432 2928 976 2248 976 4264 c 0
 976 5304 2016 6080 3000 6080 c 0
 3864 6080 4664 5496 4664 4832 c 0
 4664 4464 4440 4152 4056 4152 c 0
 3784 4152 3496 4344 3496 4720 c 0
 3496 5072 3800 5280 4088 5280 c 0
 4312 5280 4472 5128 4520 5016 c 1
 4448 5504 3816 5984 3064 5984 c 0
 2216 5984 1760 5512 1760 4928 c 0
EndSplineSet
EndChar

StartChar: numbersign
Encoding: 35 35 81
GlifName: numbersign
Width: 5040
Flags: HMW
LayerCount: 2
Fore
SplineSet
528 2048 m 1
 4848 2048 l 1
 4848 1976 l 1
 528 1976 l 1
 528 2048 l 1
928 4144 m 1
 5248 4144 l 1
 5248 4072 l 1
 928 4072 l 1
 928 4144 l 1
4368 6032 m 1
 4448 6040 l 1
 3048 -40 l 1
 2968 -48 l 1
 4368 6032 l 1
2768 6040 m 1
 2848 6040 l 1
 1448 -40 l 1
 1368 -40 l 1
 2768 6040 l 1
EndSplineSet
EndChar

StartChar: slash
Encoding: 47 47 82
GlifName: slash
Width: 4160
Flags: HMW
LayerCount: 2
Fore
SplineSet
4872 6240 m 1
 4960 6240 l 1
 -152 -1200 l 1
 -240 -1200 l 1
 4872 6240 l 1
EndSplineSet
EndChar

StartChar: percent
Encoding: 37 37 83
GlifName: percent
Width: 8000
Flags: HMW
LayerCount: 2
Fore
SplineSet
5840 -80 m 0
 5064 -80 4560 296 4560 1120 c 0
 4560 2424 5464 3440 6560 3440 c 0
 7336 3440 7840 3064 7840 2240 c 0
 7840 936 6936 -80 5840 -80 c 0
6576 3368 m 0
 6032 3368 5472 1816 5472 840 c 0
 5472 368 5584 -8 5824 -8 c 0
 6368 -8 6920 1488 6920 2464 c 0
 6920 2936 6816 3368 6576 3368 c 0
7064 6000 m 1
 7160 6000 l 1
 1640 0 l 1
 1544 0 l 1
 7064 6000 l 1
2200 2560 m 0
 1424 2560 920 2936 920 3760 c 0
 920 5064 1824 6080 2920 6080 c 0
 3696 6080 4200 5704 4200 4880 c 0
 4200 3576 3296 2560 2200 2560 c 0
2936 6008 m 0
 2392 6008 1832 4456 1832 3480 c 0
 1832 3008 1944 2632 2184 2632 c 0
 2728 2632 3280 4192 3280 5168 c 0
 3280 5640 3176 6008 2936 6008 c 0
EndSplineSet
EndChar

StartChar: hyphen
Encoding: 45 45 85
GlifName: hyphen
Width: 2880
Flags: HMW
LayerCount: 2
Fore
SplineSet
664 2240 m 1
 2584 2240 l 1
 2584 2160 l 1
 664 2160 l 1
 664 2240 l 1
EndSplineSet
EndChar

StartChar: plus
Encoding: 43 43 87
GlifName: plus
Width: 4240
Flags: HMW
LayerCount: 2
Fore
SplineSet
1960 880 m 1
 2720 4160 l 1
 2800 4160 l 1
 2040 880 l 1
 1960 880 l 1
744 2568 m 1
 4024 2568 l 1
 4024 2488 l 1
 744 2488 l 1
 744 2568 l 1
EndSplineSet
EndChar

StartChar: less
Encoding: 60 60 89
GlifName: less
Width: 4480
Flags: HMW
LayerCount: 2
Fore
SplineSet
880 3072 m 1
 880 3144 l 1
 4720 4800 l 1
 4720 4728 l 1
 880 3072 l 1
880 3056 m 1
 880 3128 l 1
 4000 1472 l 1
 4000 1400 l 1
 880 3056 l 1
EndSplineSet
EndChar

StartChar: backslash
Encoding: 92 92 91
GlifName: backslash
Width: 4160
Flags: HMW
LayerCount: 2
Fore
SplineSet
1520 6240 m 1
 3280 -1200 l 1
 3200 -1200 l 1
 1440 6240 l 1
 1520 6240 l 1
EndSplineSet
EndChar

StartChar: bracketleft
Encoding: 91 91 92
GlifName: bracketleft
Width: 2792
Flags: HMW
LayerCount: 2
Fore
SplineSet
1600 6240 m 1
 3632 6240 l 1
 3632 6168 l 1
 2456 6168 l 1
 824 -1128 l 1
 1952 -1128 l 1
 1952 -1200 l 1
 -80 -1200 l 1
 1600 6240 l 1
EndSplineSet
EndChar

StartChar: braceleft
Encoding: 123 123 93
GlifName: braceleft
Width: 2336
VWidth: 9240
Flags: HMW
LayerCount: 2
Fore
SplineSet
3216 6240 m 1
 3216 6152 l 1
 2528 6152 2128 5544 2128 4912 c 0
 2128 4464 2208 4248 2208 3640 c 0
 2208 2928 1320 2584 680 2504 c 1
 680 2568 l 1
 920 2648 1376 2848 1376 3256 c 0
 1376 3696 1216 3872 1216 4568 c 0
 1216 5552 1896 6240 3216 6240 c 1
1536 -1200 m 1
 472 -1200 40 -952 40 -272 c 0
 40 680 1080 1456 1080 1960 c 0
 1080 2288 920 2392 680 2472 c 1
 680 2544 l 1
 1320 2464 1696 2280 1696 1728 c 0
 1696 928 944 240 944 -368 c 0
 944 -752 1040 -1112 1536 -1112 c 1
 1536 -1200 l 1
EndSplineSet
EndChar

StartChar: bar
Encoding: 124 124 96
GlifName: bar
Width: 1840
VWidth: 9240
Flags: HMW
LayerCount: 2
Fore
SplineSet
2008 6240 m 1
 2080 6240 l 1
 160 -2000 l 1
 88 -2000 l 1
 2008 6240 l 1
EndSplineSet
EndChar

StartChar: cent
Encoding: 162 162 98
GlifName: cent
Width: 3832
VWidth: 9240
Flags: HMW
LayerCount: 2
Fore
SplineSet
2744 4440 m 1
 1384 -680 l 1
 1312 -680 l 1
 2672 4440 l 1
 2744 4440 l 1
EndSplineSet
Refer: 40 99 N 1 0 0 1 0 0 2
EndChar

StartChar: sterling
Encoding: 163 163 99
GlifName: sterling
Width: 5048
VWidth: 9240
Flags: HMW
LayerCount: 2
Fore
SplineSet
4896 1448 m 1
 4736 280 4008 -240 3208 -240 c 0
 2112 -240 1664 240 1160 240 c 0
 824 240 488 80 336 -160 c 1
 288 -160 l 1
 544 496 1152 968 1888 968 c 0
 2680 968 2784 696 3480 696 c 0
 4072 696 4664 792 4824 1448 c 1
 4896 1448 l 1
4280 3240 m 1
 4280 3168 l 1
 520 3168 l 1
 520 3240 l 1
 4280 3240 l 1
1520 4096 m 0
 1520 5296 2616 6080 4064 6080 c 0
 5168 6080 5688 5424 5688 4736 c 0
 5688 4360 5416 4144 5128 4144 c 0
 4864 4144 4576 4320 4576 4688 c 0
 4576 5016 4848 5208 5128 5208 c 0
 5368 5208 5552 5040 5592 4904 c 1
 5568 5408 5072 5992 4192 5992 c 0
 3144 5992 2632 5040 2632 4448 c 0
 2632 3912 2800 3592 2800 2928 c 0
 2800 1376 240 1176 328 -160 c 1
 256 -160 l 1
 120 952 1768 1560 1768 2488 c 0
 1768 2936 1520 3416 1520 4096 c 0
EndSplineSet
EndChar

StartChar: section
Encoding: 167 167 101
GlifName: section
Width: 3792
VWidth: 9240
Flags: HMW
LayerCount: 2
Fore
SplineSet
1688 5096 m 0
 1688 4240 3712 4440 3712 3224 c 0
 3712 2576 3040 2328 2608 2048 c 1
 2552 2064 l 1
 2792 2240 3032 2480 3032 2800 c 0
 3032 3656 1136 3352 1136 4728 c 0
 1136 5560 1976 6080 2768 6080 c 0
 3552 6080 4016 5552 4016 5024 c 0
 4016 4536 3800 4320 3488 4320 c 0
 3216 4320 3008 4496 3008 4816 c 0
 3008 5088 3240 5288 3504 5288 c 0
 3728 5288 3888 5152 3936 5088 c 1
 3920 5480 3576 6000 2768 6000 c 0
 2184 6000 1688 5616 1688 5096 c 0
3264 1344 m 0
 3264 512 2416 -80 1464 -80 c 0
 760 -80 40 272 40 1040 c 0
 40 1384 296 1704 648 1704 c 0
 920 1704 1128 1536 1128 1232 c 0
 1128 944 888 736 584 736 c 0
 320 736 168 880 120 1008 c 1
 136 320 784 0 1464 0 c 0
 2288 0 2656 568 2656 928 c 0
 2656 1824 552 1584 552 2728 c 0
 552 3304 1200 3792 1568 3984 c 1
 1640 3984 l 1
 1544 3896 1336 3616 1336 3296 c 0
 1336 2312 3264 2736 3264 1344 c 0
EndSplineSet
EndChar

StartChar: brokenbar
Encoding: 166 166 102
GlifName: brokenbar
Width: 1760
VWidth: 9240
Flags: HMW
LayerCount: 2
Fore
SplineSet
832 1328 m 1
 904 1328 l 1
 136 -2000 l 1
 64 -2000 l 1
 832 1328 l 1
1968 6240 m 1
 2040 6240 l 1
 1352 3272 l 1
 1280 3272 l 1
 1968 6240 l 1
EndSplineSet
EndChar

StartChar: asciitilde
Encoding: 126 126 104
GlifName: asciitilde
Width: 5504
VWidth: 9240
Flags: HMW
LayerCount: 2
Fore
SplineSet
2192 3448 m 0
 1728 3448 1440 3272 1288 2744 c 1
 1200 2744 l 1
 1376 3664 1824 4128 2488 4128 c 0
 3368 4128 3448 3376 4192 3376 c 0
 4736 3376 5024 3552 5176 4080 c 1
 5264 4080 l 1
 5088 3160 4640 2696 3976 2696 c 0
 3024 2696 2864 3448 2192 3448 c 0
EndSplineSet
EndChar

StartChar: copyright
Encoding: 169 169 105
GlifName: copyright
Width: 6960
Flags: HMW
LayerCount: 2
Fore
SplineSet
680 2440 m 0
 680 4304 2456 6080 4320 6080 c 0
 5864 6080 7000 5104 7000 3560 c 0
 7000 1696 5224 -80 3360 -80 c 0
 1816 -80 680 896 680 2440 c 0
752 2440 m 0
 752 936 1856 -8 3360 -8 c 0
 5176 -8 6928 1736 6928 3560 c 0
 6928 5064 5824 6008 4320 6008 c 0
 2504 6008 752 4264 752 2440 c 0
EndSplineSet
Refer: 14 67 N 0.6 0 0 0.6 1824 1200 2
EndChar

StartChar: registered
Encoding: 174 174 106
GlifName: registered
Width: 6960
Flags: HMW
LayerCount: 2
Fore
SplineSet
680 2440 m 0
 680 4304 2456 6080 4320 6080 c 0
 5864 6080 7000 5104 7000 3560 c 0
 7000 1696 5224 -80 3360 -80 c 0
 1816 -80 680 896 680 2440 c 0
752 2440 m 0
 752 936 1856 -8 3360 -8 c 0
 5176 -8 6928 1736 6928 3560 c 0
 6928 5064 5824 6008 4320 6008 c 0
 2504 6008 752 4264 752 2440 c 0
EndSplineSet
Refer: 29 82 N 0.6 0 0 0.6 2016 1184 2
EndChar

StartChar: logicalnot
Encoding: 172 172 107
GlifName: logicalnot
Width: 3888
Flags: HMW
LayerCount: 2
Fore
SplineSet
4040 4848 m 1
 1200 4848 l 1
 1200 4920 l 1
 4128 4920 l 1
 3768 3304 l 1
 3696 3304 l 1
 4040 4848 l 1
EndSplineSet
EndChar

StartChar: guillemotleft
Encoding: 171 171 108
GlifName: guillemotleft
Width: 5560
Flags: HMW
LayerCount: 2
Fore
SplineSet
4008 3104 m 1
 5120 1200 l 1
 5080 1160 l 1
 2840 3000 l 1
 2840 3200 l 1
 5960 5040 l 1
 6000 5000 l 1
 4008 3104 l 1
1768 3104 m 1
 2880 1200 l 1
 2840 1160 l 1
 600 3000 l 1
 600 3200 l 1
 3720 5040 l 1
 3760 5000 l 1
 1768 3104 l 1
EndSplineSet
EndChar

StartChar: mu
Encoding: 181 181 111
GlifName: mu
Width: 5032
VWidth: 9240
Flags: HMW
LayerCount: 2
Fore
SplineSet
152 -728 m 2
 -16 -1464 88 -2000 784 -2024 c 1
 936 -2008 l 1
 720 -1920 544 -1760 544 -1480 c 0
 544 -1200 776 -1000 1040 -1000 c 0
 1304 -1000 1544 -1216 1544 -1520 c 0
 1544 -1832 1360 -2080 776 -2080 c 0
 56 -2080 -96 -1488 80 -728 c 2
 840 2568 l 1
 912 2568 l 1
 152 -728 l 2
EndSplineSet
Refer: 58 117 N 1 0 0 1 0 0 2
EndChar

StartChar: asciicircum
Encoding: 94 94 113
GlifName: asciicircum
Width: 4360
Flags: HMW
LayerCount: 2
Fore
SplineSet
3264 5784 m 1
 1728 4992 l 1
 1680 5040 l 1
 3040 6160 l 1
 3560 6160 l 1
 4440 5040 l 1
 4392 4992 l 1
 3264 5784 l 1
EndSplineSet
EndChar

StartChar: degree
Encoding: 176 176 115
GlifName: degree
Width: 2560
Flags: HMW
LayerCount: 2
Fore
SplineSet
1552 5440 m 0
 1552 5968 1984 6400 2512 6400 c 0
 3040 6400 3472 5968 3472 5440 c 0
 3472 4912 3040 4480 2512 4480 c 0
 1984 4480 1552 4912 1552 5440 c 0
1824 5440 m 0
 1824 5048 2120 4752 2512 4752 c 0
 2904 4752 3200 5048 3200 5440 c 0
 3200 5832 2904 6128 2512 6128 c 0
 2120 6128 1824 5832 1824 5440 c 0
EndSplineSet
EndChar

StartChar: onequarter
Encoding: 188 188 119
GlifName: onequarter
Width: 5128
Flags: HMW
LayerCount: 2
Fore
SplineSet
5024 5200 m 1
 5088 5200 l 1
 -72 -800 l 1
 -136 -800 l 1
 5024 5200 l 1
EndSplineSet
Refer: 6 52 N 0.6 0 0 0.6 1920 -824 2
Refer: 3 49 N 0.6 0 0 0.6 816 2848 2
EndChar

StartChar: onehalf
Encoding: 189 189 120
GlifName: onehalf
Width: 5360
Flags: HMW
LayerCount: 2
Fore
SplineSet
5024 5200 m 1
 5088 5200 l 1
 -72 -800 l 1
 -136 -800 l 1
 5024 5200 l 1
EndSplineSet
Refer: 4 50 N 0.6 0 0 0.6 2728 -808 2
Refer: 3 49 N 0.6 0 0 0.6 816 2848 2
EndChar

StartChar: threequarters
Encoding: 190 190 121
GlifName: threequarters
Width: 5608
Flags: HMW
LayerCount: 2
Fore
SplineSet
5504 5200 m 1
 5568 5200 l 1
 408 -800 l 1
 344 -800 l 1
 5504 5200 l 1
EndSplineSet
Refer: 5 51 N 0.6 0 0 0.6 680 2832 2
Refer: 6 52 N 0.6 0 0 0.6 2400 -824 2
EndChar

StartChar: grave
Encoding: 96 96 123
GlifName: grave
Width: 3192
Flags: HMW
LayerCount: 2
Fore
SplineSet
1888 5696 m 2
 1688 5688 1512 5840 1512 6040 c 0
 1512 6240 1712 6448 1968 6368 c 2
 3824 5816 l 1
 3800 5736 l 1
 1888 5696 l 2
EndSplineSet
EndChar

StartChar: acute
Encoding: 180 180 124
GlifName: acute
Width: 3192
Flags: HMW
LayerCount: 2
Fore
SplineSet
3752 5680 m 2
 1840 5720 l 1
 1816 5800 l 1
 3672 6352 l 2
 3928 6432 4128 6224 4128 6024 c 0
 4128 5824 3952 5672 3752 5680 c 2
EndSplineSet
EndChar

StartChar: multiply
Encoding: 215 215 127
GlifName: multiply
Width: 4240
Flags: HMW
LayerCount: 2
Fore
SplineSet
3256 1336 m 1
 1456 3656 l 1
 1504 3704 l 1
 3304 1384 l 1
 3256 1336 l 1
928 1392 m 1
 3768 3712 l 1
 3816 3664 l 1
 976 1344 l 1
 928 1392 l 1
EndSplineSet
EndChar

StartChar: cedilla
Encoding: 184 184 128
GlifName: cedilla
Width: 4400
Flags: HMW
LayerCount: 2
Fore
SplineSet
1896 -632 m 1
 2856 328 l 1
 2952 328 l 1
 1992 -632 l 1
 1896 -632 l 1
1896 -632 m 1
 2256 -312 l 1
 2912 -312 3376 -464 3376 -880 c 0
 3376 -1392 2656 -1760 1800 -1760 c 1
 1800 -1688 l 1
 2272 -1688 2648 -1440 2648 -1040 c 0
 2648 -712 2384 -632 1896 -632 c 1
EndSplineSet
EndChar

StartChar: ring
Encoding: 730 730 271
GlifName: ring
Width: 2560
VWidth: 0
Flags: HMW
LayerCount: 2
Fore
SplineSet
1480 5440 m 0
 1480 5848 1800 6160 2240 6160 c 0
 2680 6160 3000 5848 3000 5440 c 0
 3000 5032 2680 4720 2240 4720 c 0
 1800 4720 1480 5032 1480 5440 c 0
1832 5232 m 0
 1832 4992 1920 4792 2184 4792 c 0
 2464 4792 2648 5328 2648 5648 c 0
 2648 5888 2560 6088 2296 6088 c 0
 2016 6088 1832 5552 1832 5232 c 0
EndSplineSet
EndChar

StartChar: tilde
Encoding: 732 732 272
GlifName: tilde
Width: 3584
VWidth: 0
Flags: HMW
LayerCount: 2
Fore
SplineSet
1872 5304 m 0
 1584 5304 1392 5184 1232 4800 c 1
 1160 4800 l 1
 1320 5480 1728 5864 2168 5864 c 0
 2728 5864 3056 5232 3472 5232 c 0
 3760 5232 3952 5352 4112 5736 c 1
 4184 5736 l 1
 4024 4976 3696 4672 3256 4672 c 0
 2640 4672 2344 5304 1872 5304 c 0
EndSplineSet
EndChar

StartChar: AE
Encoding: 198 198 274
GlifName: A_E_
Width: 8096
Flags: HMW
LayerCount: 2
Fore
SplineSet
5544 6000 m 1
 8848 6000 l 1
 8464 4360 l 1
 8392 4360 l 1
 8544 5216 8272 5928 7336 5928 c 2
 5544 5928 l 1
 5544 6000 l 1
5904 3064 m 2
 5352 3064 l 1
 5352 3144 l 1
 5904 3144 l 2
 6360 3144 6832 3456 7000 3992 c 1
 7064 3992 l 1
 6648 2176 l 1
 6576 2176 l 1
 6648 2712 6360 3064 5904 3064 c 2
7536 0 m 1
 3200 0 l 1
 3200 72 l 1
 5944 72 l 2
 7040 72 7600 784 7880 1800 c 1
 7952 1800 l 1
 7536 0 l 1
5272 6000 m 1
 6224 6000 l 1
 4832 0 l 1
 3880 0 l 1
 5272 6000 l 1
2088 2000 m 1
 4440 2000 l 1
 4440 1920 l 1
 2088 1920 l 1
 2088 2000 l 1
5216 6000 m 1
 5312 6000 l 1
 600 0 l 1
 496 0 l 1
 5216 6000 l 1
-200 72 m 1
 1560 72 l 1
 1560 0 l 1
 -200 0 l 1
 -200 72 l 1
EndSplineSet
EndChar

StartChar: ae
Encoding: 230 230 277
GlifName: ae
Width: 6344
VWidth: 9240
Flags: HMW
LayerCount: 2
Fore
SplineSet
2192 2048 m 2
 2816 2048 l 1
 2816 1968 l 1
 2288 1968 l 2
 1648 1968 1104 1408 1104 672 c 0
 1104 232 1288 -8 1536 -8 c 0
 1976 -8 2400 664 2576 1448 c 2
 2800 2440 l 2
 2912 2952 2920 3664 2296 3664 c 0
 1936 3664 1424 3536 1232 3288 c 1
 1624 3448 1952 3248 1952 2944 c 0
 1952 2608 1664 2424 1400 2424 c 0
 1096 2424 904 2592 904 2896 c 0
 904 3392 1616 3744 2376 3744 c 0
 3416 3744 3632 3168 3504 2440 c 1
 3176 1448 l 1
 2992 456 2312 -80 1392 -80 c 0
 728 -80 144 152 144 744 c 0
 144 1496 896 2048 2192 2048 c 2
5416 3000 m 0
 5416 3360 5336 3696 5072 3696 c 0
 4440 3696 3624 2400 3624 1088 c 0
 3624 512 3816 48 4272 48 c 0
 4928 48 5536 552 5864 1144 c 1
 5936 1144 l 1
 5608 528 4952 -80 4016 -80 c 0
 3368 -80 2808 320 2808 1280 c 1
 2968 1240 l 1
 2984 2760 4016 3760 5104 3760 c 0
 5760 3760 6312 3552 6312 2960 c 0
 6312 1760 4312 1744 3552 1744 c 1
 3552 1816 l 1
 4296 1816 5416 1936 5416 3000 c 0
EndSplineSet
EndChar

StartChar: perthousand
Encoding: 8240 8240 285
GlifName: perthousand
Width: 11840
Flags: HMW
LayerCount: 2
Fore
SplineSet
9680 -80 m 0
 8904 -80 8400 296 8400 1120 c 0
 8400 2424 9304 3440 10400 3440 c 0
 11176 3440 11680 3064 11680 2240 c 0
 11680 936 10776 -80 9680 -80 c 0
10416 3368 m 0
 9872 3368 9312 1816 9312 840 c 0
 9312 368 9424 -8 9664 -8 c 0
 10208 -8 10760 1488 10760 2464 c 0
 10760 2936 10656 3368 10416 3368 c 0
5840 -80 m 0
 5064 -80 4560 296 4560 1120 c 0
 4560 2424 5464 3440 6560 3440 c 0
 7336 3440 7840 3064 7840 2240 c 0
 7840 936 6936 -80 5840 -80 c 0
6576 3368 m 0
 6032 3368 5472 1816 5472 840 c 0
 5472 368 5584 -8 5824 -8 c 0
 6368 -8 6920 1488 6920 2464 c 0
 6920 2936 6816 3368 6576 3368 c 0
7064 6000 m 1
 7160 6000 l 1
 1640 0 l 1
 1544 0 l 1
 7064 6000 l 1
2200 2560 m 0
 1424 2560 920 2936 920 3760 c 0
 920 5064 1824 6080 2920 6080 c 0
 3696 6080 4200 5704 4200 4880 c 0
 4200 3576 3296 2560 2200 2560 c 0
2936 6008 m 0
 2392 6008 1832 4456 1832 3480 c 0
 1832 3008 1944 2632 2184 2632 c 0
 2728 2632 3280 4192 3280 5168 c 0
 3280 5640 3176 6008 2936 6008 c 0
EndSplineSet
EndChar

StartChar: uni2031
Encoding: 8241 8241 286
GlifName: uni2031
Width: 15744
Flags: HMW
LayerCount: 2
Fore
SplineSet
13608 -80 m 0
 12832 -80 12328 296 12328 1120 c 0
 12328 2424 13232 3440 14328 3440 c 0
 15104 3440 15608 3064 15608 2240 c 0
 15608 936 14704 -80 13608 -80 c 0
14344 3368 m 0
 13800 3368 13240 1816 13240 840 c 0
 13240 368 13352 -8 13592 -8 c 0
 14136 -8 14688 1488 14688 2464 c 0
 14688 2936 14584 3368 14344 3368 c 0
9680 -80 m 0
 8904 -80 8400 296 8400 1120 c 0
 8400 2424 9304 3440 10400 3440 c 0
 11176 3440 11680 3064 11680 2240 c 0
 11680 936 10776 -80 9680 -80 c 0
10416 3368 m 0
 9872 3368 9312 1816 9312 840 c 0
 9312 368 9424 -8 9664 -8 c 0
 10208 -8 10760 1488 10760 2464 c 0
 10760 2936 10656 3368 10416 3368 c 0
5840 -80 m 0
 5064 -80 4560 296 4560 1120 c 0
 4560 2424 5464 3440 6560 3440 c 0
 7336 3440 7840 3064 7840 2240 c 0
 7840 936 6936 -80 5840 -80 c 0
6576 3368 m 0
 6032 3368 5472 1816 5472 840 c 0
 5472 368 5584 -8 5824 -8 c 0
 6368 -8 6920 1488 6920 2464 c 0
 6920 2936 6816 3368 6576 3368 c 0
7064 6000 m 1
 7160 6000 l 1
 1640 0 l 1
 1544 0 l 1
 7064 6000 l 1
2200 2560 m 0
 1424 2560 920 2936 920 3760 c 0
 920 5064 1824 6080 2920 6080 c 0
 3696 6080 4200 5704 4200 4880 c 0
 4200 3576 3296 2560 2200 2560 c 0
2936 6008 m 0
 2392 6008 1832 4456 1832 3480 c 0
 1832 3008 1944 2632 2184 2632 c 0
 2728 2632 3280 4192 3280 5168 c 0
 3280 5640 3176 6008 2936 6008 c 0
EndSplineSet
EndChar

StartChar: uniFB00
Encoding: 64256 64256 290
GlifName: uniF_B_00
Width: 5272
VWidth: 9240
Flags: HMW
LayerCount: 2
Fore
SplineSet
472 3680 m 1
 5512 3680 l 1
 5512 3608 l 1
 472 3608 l 1
 472 3680 l 1
6392 5496 m 1
 6328 5712 6080 6008 5592 6008 c 0
 5032 6008 4648 5296 4472 4320 c 2
 3760 304 l 2
 3560 -816 2808 -1680 1704 -1680 c 0
 944 -1680 632 -1208 632 -840 c 0
 632 -480 864 -280 1152 -280 c 0
 1400 -280 1680 -424 1680 -776 c 0
 1680 -1128 1408 -1296 1136 -1296 c 0
 984 -1296 832 -1208 792 -1096 c 1
 856 -1312 1112 -1608 1664 -1608 c 0
 2288 -1608 2680 -896 2848 80 c 2
 3552 4096 l 2
 3744 5216 4512 6080 5552 6080 c 0
 6248 6080 6560 5608 6560 5240 c 0
 6560 4880 6328 4680 6040 4680 c 0
 5792 4680 5512 4824 5512 5176 c 0
 5512 5528 5776 5696 6048 5696 c 0
 6200 5696 6344 5600 6392 5496 c 1
4096 5096 m 1
 4032 5312 3784 5608 3232 5608 c 0
 2608 5608 2232 4928 2056 3952 c 2
 1336 -96 l 2
 1136 -1216 384 -2080 -656 -2080 c 0
 -1352 -2080 -1656 -1608 -1656 -1240 c 0
 -1656 -880 -1432 -680 -1144 -680 c 0
 -896 -680 -608 -824 -608 -1176 c 0
 -608 -1528 -880 -1696 -1152 -1696 c 0
 -1304 -1696 -1456 -1608 -1496 -1496 c 1
 -1432 -1712 -1176 -2008 -688 -2008 c 0
 -128 -2008 256 -1296 424 -320 c 2
 1128 3696 l 2
 1320 4816 2088 5680 3192 5680 c 0
 3952 5680 4264 5208 4264 4840 c 0
 4264 4480 4032 4280 3744 4280 c 0
 3496 4280 3216 4424 3216 4776 c 0
 3216 5128 3488 5296 3760 5296 c 0
 3912 5296 4048 5200 4096 5096 c 1
EndSplineSet
Ligature2: "'liga' Standard Ligatures lookup 0-1" f f
LCarets2: 1 0
EndChar

StartChar: uniFB01
Encoding: 64257 64257 291
GlifName: uniF_B_01
Width: 5048
VWidth: 9240
Flags: HMW
LayerCount: 2
Fore
SplineSet
4888 1304 m 1
 4584 504 4080 -80 3384 -80 c 0
 2960 -80 2744 104 2744 536 c 0
 2744 576 2752 664 2760 712 c 2
 3424 3608 l 1
 472 3608 l 1
 472 3680 l 1
 4328 3680 l 1
 3552 384 l 2
 3544 336 3536 280 3536 240 c 0
 3536 152 3576 88 3680 88 c 0
 4120 88 4576 648 4824 1328 c 1
 4888 1304 l 1
4392 5496 m 1
 4328 5720 4072 6008 3448 6008 c 0
 2736 6008 2312 5304 2136 4320 c 2
 1336 -96 l 2
 1136 -1208 384 -2080 -656 -2080 c 0
 -1352 -2080 -1656 -1608 -1656 -1240 c 0
 -1656 -880 -1432 -680 -1144 -680 c 0
 -896 -680 -608 -824 -608 -1176 c 0
 -608 -1528 -880 -1696 -1152 -1696 c 0
 -1304 -1696 -1456 -1608 -1496 -1496 c 1
 -1432 -1712 -1176 -2008 -688 -2008 c 0
 -128 -2008 256 -1296 424 -320 c 2
 1216 4096 l 2
 1408 5216 2208 6080 3408 6080 c 0
 4248 6080 4560 5616 4560 5240 c 0
 4560 4880 4328 4680 4040 4680 c 0
 3792 4680 3512 4824 3512 5176 c 0
 3512 5528 3784 5696 4056 5696 c 0
 4208 5696 4344 5600 4392 5496 c 1
EndSplineSet
Ligature2: "'liga' Standard Ligatures lookup 0-1" f i
LCarets2: 1 0
EndChar

StartChar: uniFB02
Encoding: 64258 64258 292
GlifName: uniF_B_02
Width: 5304
VWidth: 9240
Flags: HMW
LayerCount: 2
Fore
SplineSet
5144 1304 m 1
 4840 504 4336 -80 3640 -80 c 0
 3216 -80 3000 104 3000 536 c 0
 3000 576 3008 664 3016 712 c 2
 4192 5840 l 1
 5144 6160 l 1
 3808 384 l 2
 3800 336 3792 280 3792 240 c 0
 3792 152 3832 88 3936 88 c 0
 4376 88 4848 680 5080 1328 c 1
 5144 1304 l 1
472 3680 m 1
 3176 3680 l 1
 3176 3608 l 1
 472 3608 l 1
 472 3680 l 1
4464 5240 m 0
 4464 4880 4232 4680 3944 4680 c 0
 3696 4680 3416 4824 3416 5176 c 0
 3416 5528 3680 5696 3952 5696 c 0
 4104 5696 4248 5600 4296 5496 c 1
 4232 5712 4024 6008 3488 6008 c 0
 2848 6008 2312 5296 2136 4320 c 2
 1336 -96 l 2
 1136 -1208 384 -2080 -656 -2080 c 0
 -1352 -2080 -1656 -1608 -1656 -1240 c 0
 -1656 -880 -1432 -680 -1144 -680 c 0
 -896 -680 -608 -824 -608 -1176 c 0
 -608 -1528 -880 -1696 -1152 -1696 c 0
 -1304 -1696 -1456 -1608 -1496 -1496 c 1
 -1432 -1712 -1176 -2008 -688 -2008 c 0
 -128 -2008 256 -1296 424 -320 c 2
 1216 4096 l 2
 1408 5216 2328 6080 3456 6080 c 0
 4200 6080 4464 5624 4464 5240 c 0
EndSplineSet
Ligature2: "'liga' Standard Ligatures lookup 0-1" f l
LCarets2: 1 0
EndChar

StartChar: uniFB03
Encoding: 64259 64259 293
GlifName: uniF_B_03
Width: 7384
VWidth: 9240
Flags: HMW
LayerCount: 2
Fore
SplineSet
7224 1304 m 1
 6920 504 6416 -80 5720 -80 c 0
 5296 -80 5080 104 5080 536 c 0
 5080 576 5088 664 5096 712 c 2
 5760 3608 l 1
 472 3608 l 1
 472 3680 l 1
 6664 3680 l 1
 5888 384 l 2
 5880 336 5872 280 5872 240 c 0
 5872 152 5912 88 6016 88 c 0
 6456 88 6912 648 7160 1328 c 1
 7224 1304 l 1
6896 5240 m 0
 6896 4880 6664 4680 6376 4680 c 0
 6128 4680 5848 4824 5848 5176 c 0
 5848 5528 6120 5696 6392 5696 c 0
 6544 5696 6680 5600 6728 5496 c 1
 6664 5720 6408 6008 5784 6008 c 0
 5072 6008 4648 5304 4472 4320 c 2
 3760 304 l 2
 3568 -808 2808 -1680 1704 -1680 c 0
 944 -1680 632 -1208 632 -840 c 0
 632 -480 864 -280 1152 -280 c 0
 1400 -280 1680 -424 1680 -776 c 0
 1680 -1128 1408 -1296 1136 -1296 c 0
 984 -1296 840 -1208 800 -1096 c 1
 864 -1312 1112 -1608 1664 -1608 c 0
 2288 -1608 2680 -896 2848 80 c 2
 3552 4096 l 2
 3744 5216 4544 6080 5744 6080 c 0
 6568 6080 6896 5640 6896 5240 c 0
4096 5096 m 1
 4032 5312 3784 5608 3232 5608 c 0
 2608 5608 2232 4928 2056 3952 c 2
 1336 -96 l 2
 1136 -1216 384 -2080 -656 -2080 c 0
 -1352 -2080 -1656 -1608 -1656 -1240 c 0
 -1656 -880 -1432 -680 -1144 -680 c 0
 -896 -680 -608 -824 -608 -1176 c 0
 -608 -1528 -880 -1696 -1152 -1696 c 0
 -1304 -1696 -1456 -1608 -1496 -1496 c 1
 -1432 -1712 -1176 -2008 -688 -2008 c 0
 -128 -2008 256 -1296 424 -320 c 2
 1128 3696 l 2
 1320 4816 2088 5680 3192 5680 c 0
 3952 5680 4264 5208 4264 4840 c 0
 4264 4480 4032 4280 3744 4280 c 0
 3496 4280 3216 4424 3216 4776 c 0
 3216 5128 3488 5296 3760 5296 c 0
 3912 5296 4048 5200 4096 5096 c 1
EndSplineSet
Ligature2: "'liga' Standard Ligatures lookup 0-1" f f i
LCarets2: 2 0 0
EndChar

StartChar: uniFB04
Encoding: 64260 64260 294
GlifName: uniF_B_04
Width: 7640
VWidth: 9240
Flags: HMW
LayerCount: 2
Fore
SplineSet
7480 1304 m 1
 7176 504 6672 -80 5976 -80 c 0
 5552 -80 5336 104 5336 536 c 0
 5336 576 5344 664 5352 712 c 2
 6528 5840 l 1
 7480 6160 l 1
 6144 384 l 2
 6136 336 6128 280 6128 240 c 0
 6128 152 6168 88 6272 88 c 0
 6712 88 7184 680 7416 1328 c 1
 7480 1304 l 1
472 3680 m 1
 5512 3680 l 1
 5512 3608 l 1
 472 3608 l 1
 472 3680 l 1
6632 5496 m 1
 6568 5712 6360 6008 5824 6008 c 0
 5184 6008 4648 5296 4472 4320 c 2
 3760 304 l 2
 3560 -816 2824 -1680 1720 -1680 c 0
 960 -1680 656 -1208 656 -840 c 0
 656 -480 888 -280 1176 -280 c 0
 1424 -280 1704 -424 1704 -776 c 0
 1704 -1128 1432 -1296 1160 -1296 c 0
 1008 -1296 864 -1208 824 -1096 c 1
 888 -1312 1136 -1608 1688 -1608 c 0
 2312 -1608 2696 -896 2864 80 c 2
 3552 4096 l 2
 3744 5216 4664 6080 5792 6080 c 0
 6552 6080 6800 5608 6800 5240 c 0
 6800 4880 6568 4680 6280 4680 c 0
 6032 4680 5752 4824 5752 5176 c 0
 5752 5528 6016 5696 6288 5696 c 0
 6440 5696 6584 5600 6632 5496 c 1
4096 5096 m 1
 4032 5312 3784 5608 3232 5608 c 0
 2608 5608 2232 4928 2056 3952 c 2
 1336 -96 l 2
 1136 -1216 384 -2080 -656 -2080 c 0
 -1352 -2080 -1656 -1608 -1656 -1240 c 0
 -1656 -880 -1432 -680 -1144 -680 c 0
 -896 -680 -608 -824 -608 -1176 c 0
 -608 -1528 -880 -1696 -1152 -1696 c 0
 -1304 -1696 -1456 -1608 -1496 -1496 c 1
 -1432 -1712 -1176 -2008 -688 -2008 c 0
 -128 -2008 256 -1296 424 -320 c 2
 1128 3696 l 2
 1320 4816 2088 5680 3192 5680 c 0
 3952 5680 4264 5208 4264 4840 c 0
 4264 4480 4032 4280 3744 4280 c 0
 3496 4280 3216 4424 3216 4776 c 0
 3216 5128 3488 5296 3760 5296 c 0
 3912 5296 4048 5200 4096 5096 c 1
EndSplineSet
Ligature2: "'liga' Standard Ligatures lookup 0-1" f f l
LCarets2: 2 0 0
EndChar

StartChar: ogonek
Encoding: 731 731 295
GlifName: ogonek
Width: 4400
Flags: HMW
LayerCount: 2
Fore
SplineSet
2656 -904 m 1
 2536 -1128 2272 -1520 1656 -1520 c 0
 1216 -1520 800 -1376 800 -912 c 0
 800 -272 1752 168 2304 344 c 1
 2320 296 l 1
 2072 152 1680 -224 1680 -832 c 0
 1680 -1168 1816 -1344 2000 -1344 c 0
 2288 -1344 2496 -1064 2600 -880 c 1
 2656 -904 l 1
EndSplineSet
EndChar

StartChar: dotlessi
Encoding: 305 305 296
GlifName: dotlessi
Width: 2696
VWidth: 9240
Flags: HMW
LayerCount: 2
Fore
SplineSet
2544 1304 m 1
 2240 504 1736 -80 1040 -80 c 0
 616 -80 400 104 400 536 c 0
 400 576 408 664 416 712 c 2
 1080 3608 l 1
 512 3608 l 1
 512 3680 l 1
 1984 3680 l 1
 1200 384 l 2
 1192 336 1184 280 1184 240 c 0
 1184 152 1224 88 1328 88 c 0
 1768 88 2232 648 2480 1328 c 1
 2544 1304 l 1
EndSplineSet
EndChar

StartChar: uni0237
Encoding: 567 567 297
GlifName: uni0237
Width: 2208
VWidth: 9240
Flags: HMW
LayerCount: 2
Fore
SplineSet
-1344 -1424 m 1
 -1272 -1712 -968 -2008 -600 -2008 c 0
 136 -2008 136 -800 360 160 c 2
 1160 3608 l 1
 424 3608 l 1
 424 3680 l 1
 2032 3680 l 1
 1248 -96 l 2
 1040 -1096 480 -2080 -560 -2080 c 0
 -1160 -2080 -1496 -1560 -1496 -1216 c 0
 -1496 -856 -1208 -616 -920 -616 c 0
 -672 -616 -432 -792 -432 -1104 c 0
 -432 -1432 -704 -1624 -1000 -1624 c 0
 -1160 -1624 -1280 -1528 -1344 -1424 c 1
EndSplineSet
EndChar

StartChar: kgreenlandic
Encoding: 312 312 306
GlifName: kgreenlandic
Width: 4608
VWidth: 9240
Flags: HMW
LayerCount: 2
Fore
SplineSet
4448 1304 m 1
 4144 504 3656 -80 2976 -80 c 0
 2552 -80 2328 104 2328 536 c 0
 2328 576 2336 664 2344 712 c 2
 2432 1120 l 2
 2536 1584 2800 2232 2280 2232 c 0
 1784 2232 1664 1800 1592 1520 c 1
 1536 1520 l 1
 1696 2224 2048 2320 2424 2320 c 0
 2976 2320 3488 2008 3248 968 c 2
 3088 272 l 2
 3088 256 3088 216 3088 200 c 0
 3088 112 3144 72 3248 72 c 0
 3688 72 4144 664 4384 1328 c 1
 4448 1304 l 1
1488 2584 m 1
 1576 2544 l 1
 1600 2192 1752 2008 2024 2008 c 0
 2376 2008 2520 2376 2728 2888 c 0
 2952 3432 3248 3760 3664 3760 c 0
 4056 3760 4368 3496 4368 3048 c 0
 4368 2672 4136 2504 3888 2504 c 0
 3640 2504 3424 2688 3424 2968 c 0
 3424 3224 3624 3408 3880 3408 c 0
 4080 3408 4208 3288 4248 3184 c 1
 4216 3488 3992 3688 3680 3688 c 0
 3304 3688 3024 3400 2808 2864 c 0
 2592 2320 2408 1936 2024 1936 c 0
 1712 1936 1488 2168 1488 2584 c 1
1192 3608 m 1
 496 3608 l 1
 496 3680 l 1
 2096 3680 l 1
 1240 0 l 1
 360 0 l 1
 1192 3608 l 1
EndSplineSet
EndChar

StartChar: breve
Encoding: 728 728 307
GlifName: breve
Width: 2304
VWidth: 9240
Flags: HMW
LayerCount: 2
Fore
SplineSet
1352 6072 m 1
 1280 5696 1600 5512 2032 5512 c 0
 2464 5512 2944 5680 3032 6072 c 1
 3104 6072 l 1
 3024 5584 2720 4944 1952 4944 c 0
 1264 4944 1200 5584 1280 6072 c 1
 1352 6072 l 1
EndSplineSet
EndChar

StartChar: thorn
Encoding: 254 254 318
GlifName: thorn
Width: 4704
VWidth: 9240
Flags: HMW
LayerCount: 2
Fore
SplineSet
1576 1200 m 0
 1576 648 1768 200 2112 200 c 0
 2784 200 3480 1568 3480 2640 c 0
 3480 3216 3296 3600 2936 3600 c 0
 2128 3600 1576 2072 1576 1200 c 0
1520 1200 m 0
 1520 2064 2064 3792 3192 3792 c 0
 3744 3792 4472 3472 4472 2432 c 0
 4472 832 3208 -32 2408 -32 c 0
 1800 -32 1520 464 1520 1200 c 0
-632 -1928 m 1
 1328 -1928 l 1
 1328 -2000 l 1
 -632 -2000 l 1
 -632 -1928 l 1
1696 5928 m 1
 1144 5928 l 1
 1144 6000 l 1
 2600 6000 l 1
 1768 2336 l 1
 1600 1760 l 1
 1544 1296 l 1
 768 -2000 l 1
 -112 -2000 l 1
 1696 5928 l 1
EndSplineSet
EndChar

StartChar: Thorn
Encoding: 222 222 319
GlifName: T_horn
Width: 5048
Flags: HMW
LayerCount: 2
Fore
SplineSet
2520 1440 m 2
 1640 1440 l 1
 1640 1512 l 1
 2440 1512 l 2
 3496 1512 4072 2712 4072 3584 c 0
 4072 4056 3928 4728 3240 4728 c 2
 2048 4728 l 1
 2048 4800 l 1
 3320 4800 l 2
 4368 4800 5144 4416 5144 3456 c 0
 5144 2256 4128 1440 2520 1440 c 2
-232 72 m 1
 2160 72 l 1
 2160 0 l 1
 -232 0 l 1
 -232 72 l 1
1144 6000 m 1
 3544 6000 l 1
 3544 5928 l 1
 1144 5928 l 1
 1144 6000 l 1
1856 6000 m 1
 2808 6000 l 1
 1424 0 l 1
 472 0 l 1
 1856 6000 l 1
EndSplineSet
EndChar

StartChar: Lslash
Encoding: 321 321 324
GlifName: L_slash
Width: 4640
Flags: HMW
LayerCount: 2
Fore
SplineSet
296 2880 m 1
 3216 4640 l 1
 3216 4552 l 1
 296 2792 l 1
 296 2880 l 1
EndSplineSet
Refer: 23 76 N 1 0 0 1 0 0 2
EndChar

StartChar: lslash
Encoding: 322 322 325
GlifName: lslash
Width: 2640
VWidth: 9240
Flags: HMW
LayerCount: 2
Fore
SplineSet
280 3136 m 1
 2752 4640 l 1
 2752 4544 l 1
 280 3040 l 1
 280 3136 l 1
EndSplineSet
Refer: 49 108 N 1 0 0 1 0 0 2
EndChar

StartChar: eth
Encoding: 240 240 329
GlifName: eth
Width: 4640
VWidth: 9240
Flags: HMW
LayerCount: 2
Fore
SplineSet
1760 5040 m 1
 5184 5040 l 1
 5184 4968 l 1
 1760 4968 l 1
 1760 5040 l 1
4616 3168 m 0
 4616 1488 3352 -80 1968 -80 c 0
 952 -80 320 352 320 1392 c 0
 320 3040 1696 3920 2664 3920 c 0
 3512 3920 3608 3352 3592 2416 c 1
 3520 2768 l 1
 3520 3280 3344 3792 2872 3792 c 0
 2048 3792 1296 2384 1296 1104 c 0
 1296 528 1408 -8 1960 -8 c 0
 2752 -8 3520 1776 3520 2768 c 1
 3560 2816 l 1
 3592 4400 3544 6016 1896 6016 c 1
 1896 6080 l 1
 3760 6080 4616 4760 4616 3168 c 0
EndSplineSet
EndChar

StartChar: OE
Encoding: 338 338 330
GlifName: O_E_
Width: 7800
Flags: HMW
LayerCount: 2
Fore
SplineSet
3992 6000 m 1
 3992 5912 l 1
 2552 5912 1608 3352 1608 1496 c 0
 1608 696 1856 88 2640 88 c 1
 2640 0 l 1
 1416 0 552 672 552 2024 c 0
 552 4272 2224 6000 3992 6000 c 1
EndSplineSet
Refer: 16 69 N 1 0 0 1 3008 0 2
EndChar

StartChar: germandbls
Encoding: 223 223 332
GlifName: germandbls
Width: 5720
VWidth: 9240
Flags: HMW
LayerCount: 2
Fore
SplineSet
5480 1600 m 0
 5480 400 4456 -80 3648 -80 c 0
 2904 -80 2528 400 2528 992 c 0
 2528 1456 2800 1736 3128 1736 c 0
 3416 1736 3640 1544 3640 1224 c 0
 3640 936 3352 720 3088 720 c 0
 2856 720 2688 840 2616 1008 c 1
 2584 456 2936 8 3568 8 c 0
 4280 8 4496 864 4496 1616 c 0
 4496 2368 4192 3208 3336 3208 c 1
 3336 3264 l 1
 4784 3264 5480 2640 5480 1600 c 0
-200 72 m 1
 2152 72 l 1
 2152 0 l 1
 -200 0 l 1
 -200 72 l 1
3336 3224 m 1
 3336 3280 l 1
 4368 3280 4976 4184 4976 4856 c 0
 4976 5432 4776 6016 4040 6016 c 0
 2888 6016 2560 4928 2312 3848 c 2
 1432 0 l 1
 520 0 l 1
 1408 3928 l 2
 1712 5288 2592 6080 4056 6080 c 0
 5120 6080 5968 5664 5968 4808 c 0
 5968 3896 4944 3224 3336 3224 c 1
EndSplineSet
EndChar

StartChar: uni0212
Encoding: 530 530 333
GlifName: uni0212
Width: 5880
VWidth: 0
Flags: HMW
LayerCount: 2
Fore
SplineSet
4736 6560 m 1
 4808 6936 4488 7120 4056 7120 c 0
 3624 7120 3144 6952 3056 6560 c 1
 2984 6560 l 1
 3064 7048 3368 7688 4136 7688 c 0
 4888 7688 4888 7048 4808 6560 c 1
 4736 6560 l 1
EndSplineSet
Refer: 29 82 N 1 0 0 1 0 0 3
EndChar

StartChar: uni0213
Encoding: 531 531 334
GlifName: uni0213
Width: 3440
VWidth: 0
Flags: HMW
LayerCount: 2
Fore
SplineSet
3184 4256 m 1
 3256 4632 2944 4816 2512 4816 c 0
 2080 4816 1592 4648 1504 4256 c 1
 1440 4256 l 1
 1520 4744 1824 5384 2592 5384 c 0
 3344 5384 3344 4744 3264 4256 c 1
 3184 4256 l 1
EndSplineSet
Refer: 55 114 N 1 0 0 1 0 0 3
EndChar

StartChar: circumflex
Encoding: 710 710 335
GlifName: circumflex
Width: 3240
Flags: HMW
LayerCount: 2
Fore
SplineSet
2656 5720 m 1
 1320 5160 l 1
 1280 5200 l 1
 2384 6160 l 1
 2968 6160 l 1
 3720 5200 l 1
 3680 5160 l 1
 2656 5720 l 1
EndSplineSet
EndChar

StartChar: caron
Encoding: 711 711 336
GlifName: caron
Width: 3240
Flags: HMW
LayerCount: 2
Fore
SplineSet
2504 5752 m 1
 3840 6312 l 1
 3880 6272 l 1
 2792 5312 l 1
 2208 5312 l 1
 1440 6272 l 1
 1480 6312 l 1
 2504 5752 l 1
EndSplineSet
EndChar

StartChar: pi
Encoding: 960 960 337
GlifName: pi
Width: 4840
VWidth: 9240
Flags: HMW
LayerCount: 2
Fore
SplineSet
672 -80 m 0
 328 -80 152 120 152 352 c 0
 152 1008 1144 768 1568 2264 c 2
 1944 3600 l 1
 2392 3600 l 1
 1952 1944 l 2
 1640 760 1328 -80 672 -80 c 0
4400 824 m 1
 4200 264 3848 -80 3296 -80 c 0
 2904 -80 2536 216 2664 736 c 2
 3328 3360 l 1
 4240 3360 l 1
 3560 800 l 2
 3480 504 3608 424 3800 424 c 0
 4040 424 4200 584 4352 856 c 1
 4400 824 l 1
4960 3680 m 1
 4680 2800 l 1
 720 2800 l 1
 576 2200 l 1
 504 2200 l 1
 856 3680 l 1
 4960 3680 l 1
EndSplineSet
EndChar

StartChar: uni1E9E
Encoding: 7838 7838 338
GlifName: uni1E_9E_
Width: 6584
VWidth: 9240
Flags: HMW
LayerCount: 2
Fore
SplineSet
2488 1120 m 0
 2488 1488 2720 1736 3048 1736 c 0
 3336 1736 3560 1544 3560 1224 c 0
 3560 936 3288 720 3024 720 c 0
 2800 720 2648 864 2600 952 c 1
 2640 496 3016 32 3824 32 c 0
 4856 32 5328 992 5328 1872 c 0
 5328 2496 5120 3208 4200 3208 c 1
 4200 3264 l 1
 5776 3264 6344 2768 6344 1856 c 0
 6344 592 5224 -80 3968 -80 c 0
 2864 -80 2488 512 2488 1120 c 0
-200 72 m 1
 2216 72 l 1
 2216 0 l 1
 -200 0 l 1
 -200 72 l 1
4200 3224 m 1
 4200 3280 l 1
 5552 3280 5808 4440 5808 4984 c 0
 5808 5432 5624 6016 4600 6016 c 0
 3224 6016 2600 4784 2312 3528 c 2
 1496 0 l 1
 520 0 l 1
 1344 3608 l 2
 1696 5152 2912 6080 4616 6080 c 0
 6112 6080 6832 5600 6832 4872 c 0
 6832 4152 6128 3224 4200 3224 c 1
EndSplineSet
EndChar

StartChar: uni203D
Encoding: 8253 8253 339
GlifName: uni203D_
Width: 4608
Flags: HMW
LayerCount: 2
Fore
SplineSet
3408 4280 m 0
 3256 3432 2544 2976 2224 1776 c 1
 2144 1776 l 1
 2384 2976 2368 3416 2368 4024 c 0
 2368 4504 2504 4864 2928 4864 c 0
 3240 4864 3472 4624 3408 4280 c 0
4032 4880 m 0
 4032 5472 3752 6000 3024 6000 c 0
 2096 6000 1392 5368 1296 4936 c 1
 1360 5000 1496 5120 1680 5120 c 0
 1928 5120 2176 4944 2176 4624 c 0
 2176 4256 1872 4104 1640 4104 c 0
 1368 4104 1136 4304 1136 4664 c 0
 1136 5352 2016 6080 3104 6080 c 0
 4056 6080 4968 5696 4968 4720 c 0
 4968 3568 3664 2680 2464 2680 c 1
 2464 2736 l 1
 3280 2984 4032 3896 4032 4880 c 0
EndSplineSet
Refer: 1 46 N 1 0 0 1 1192 0 2
EndChar

StartChar: R.alt
Encoding: 65536 -1 340
GlifName: R_.alt
Width: 5712
Flags: HMW
LayerCount: 2
Fore
SplineSet
5104 0 m 1
 4976 0 4816 0 4528 0 c 0
 2584 0 4600 3040 2712 3040 c 2
 1888 3040 l 1
 1888 3080 l 1
 2952 3080 l 2
 5648 3080 3968 72 4904 72 c 0
 4992 72 5104 72 5104 72 c 1
 5104 0 l 1
1872 6000 m 1
 2824 6000 l 1
 1424 0 l 1
 472 0 l 1
 1872 6000 l 1
-312 72 m 1
 2304 72 l 1
 2304 0 l 1
 -312 0 l 1
 -312 72 l 1
3000 3064 m 2
 1888 3064 l 1
 1888 3120 l 1
 2920 3120 l 2
 4024 3120 4520 4168 4520 4928 c 0
 4520 5320 4424 5928 3688 5928 c 2
 1008 5928 l 1
 1008 6000 l 1
 3800 6000 l 2
 4848 6000 5568 5680 5568 4800 c 0
 5568 3680 4608 3064 3000 3064 c 2
EndSplineSet
EndChar

StartChar: J.alt
Encoding: 65537 -1 341
GlifName: J_.alt
Width: 4576
Flags: HMW
LayerCount: 2
Fore
SplineSet
2784 6000 m 1
 5504 6000 l 1
 5504 5928 l 1
 2784 5928 l 1
 2784 6000 l 1
3744 6000 m 1
 4704 6000 l 1
 3824 2240 l 2
 3536 1024 2592 -80 1304 -80 c 0
 448 -80 40 520 40 1160 c 0
 40 1768 368 2080 752 2080 c 0
 1096 2080 1376 1888 1376 1472 c 0
 1376 1144 1112 872 712 872 c 0
 432 872 192 1056 120 1232 c 1
 88 600 480 -8 1304 -8 c 0
 2272 -8 2632 928 2864 2000 c 2
 3744 6000 l 1
EndSplineSet
EndChar

StartChar: four.alt
Encoding: 65538 -1 342
GlifName: four.alt
Width: 4952
VWidth: 9240
Flags: HMW
LayerCount: 2
Fore
SplineSet
4352 3984 m 1
 3464 -8 l 1
 2512 -8 l 1
 3344 3744 l 1
 3648 3744 4144 3872 4352 3984 c 1
4128 72 m 1
 4128 0 l 1
 1816 0 l 1
 1816 72 l 1
 4128 72 l 1
264 1600 m 1
 4552 1600 l 1
 4552 1520 l 1
 120 1520 l 1
 1288 3120 3520 4784 3728 6000 c 1
 4736 6000 l 1
 4568 4776 1448 3104 264 1600 c 1
EndSplineSet
EndChar

StartChar: fj.lig
Encoding: 65539 -1 343
GlifName: fj.lig
Width: 4656
VWidth: 9240
Flags: HMW
LayerCount: 2
Fore
SplineSet
2808 176 m 2
 3472 3600 l 1
 472 3608 l 1
 472 3680 l 1
 4344 3680 l 1
 3704 304 l 2
 3520 -704 2768 -1680 1664 -1680 c 0
 936 -1680 600 -1224 600 -848 c 0
 600 -488 856 -280 1144 -280 c 0
 1392 -280 1664 -432 1664 -768 c 0
 1664 -1112 1392 -1288 1120 -1288 c 0
 936 -1288 808 -1168 784 -1096 c 1
 848 -1312 1128 -1608 1664 -1608 c 0
 2336 -1608 2616 -792 2808 176 c 2
4400 5488 m 1
 4328 5720 4080 6008 3448 6008 c 0
 2744 6008 2312 5296 2136 4320 c 2
 1336 -96 l 2
 1136 -1208 408 -2080 -632 -2080 c 0
 -1328 -2080 -1640 -1608 -1640 -1240 c 0
 -1640 -880 -1408 -680 -1120 -680 c 0
 -872 -680 -592 -824 -592 -1176 c 0
 -592 -1528 -864 -1696 -1136 -1696 c 0
 -1328 -1696 -1456 -1544 -1480 -1488 c 1
 -1416 -1688 -1192 -2008 -672 -2008 c 0
 -112 -2008 280 -1296 448 -320 c 2
 1216 4096 l 2
 1408 5216 2208 6080 3408 6080 c 0
 4264 6080 4560 5608 4560 5240 c 0
 4560 4880 4328 4680 4040 4680 c 0
 3792 4680 3512 4824 3512 5176 c 0
 3512 5528 3784 5696 4056 5696 c 0
 4248 5696 4360 5560 4400 5488 c 1
EndSplineSet
LCarets2: 1 0
Ligature2: "'liga' Standard Ligatures lookup 0-1" f j
EndChar

StartChar: v.alt
Encoding: 65540 -1 344
Width: 3888
VWidth: 9240
Flags: HW
LayerCount: 2
Fore
SplineSet
1480 3800 m 1
 1504 3752 l 1
 1176 3568 1080 3320 1080 3040 c 0
 1080 2400 1904 2072 1904 1080 c 0
 1904 944 1864 528 1848 344 c 1
 3072 1000 3776 1720 3776 2752 c 0
 3776 2928 3752 3120 3704 3200 c 1
 3680 3000 3480 2680 3112 2680 c 0
 2744 2680 2576 2968 2576 3216 c 0
 2576 3504 2800 3752 3144 3752 c 0
 3696 3752 3848 3240 3848 2752 c 0
 3848 1400 2704 664 1144 -96 c 1
 944 -24 l 1
 960 152 1016 688 1016 848 c 0
 1016 1464 240 1992 240 2584 c 0
 240 3224 952 3592 1480 3800 c 1
EndSplineSet
EndChar

StartChar: uni2116
Encoding: 8470 8470 345
Width: 8880
Flags: HW
LayerCount: 2
Fore
SplineSet
6528 2560 m 1
 8496 2560 l 1
 8488 2480 l 1
 6520 2480 l 1
 6528 2560 l 1
8320 6080 m 0
 9000 6080 9432 5712 9432 5032 c 0
 9432 3808 8544 3040 7624 3040 c 0
 6944 3040 6512 3408 6512 4088 c 0
 6512 5312 7400 6080 8320 6080 c 0
7232 3760 m 0
 7232 3288 7376 3112 7656 3112 c 0
 8208 3112 8704 4384 8704 5360 c 0
 8704 5832 8568 6008 8288 6008 c 0
 7736 6008 7232 4736 7232 3760 c 0
EndSplineSet
Refer: 25 78 N 1 0 0 1 208 0 2
EndChar

StartChar: Euro
Encoding: 8364 8364 346
Width: 5856
Flags: HW
LayerCount: 2
Fore
SplineSet
6032 5144 m 1
 5968 5464 5496 6008 4760 6008 c 0
 3248 6008 2280 3736 2280 1832 c 0
 2280 920 2560 16 3368 16 c 0
 4160 16 4992 696 5272 1424 c 1
 5352 1424 l 1
 5064 648 4208 -80 3240 -80 c 0
 2240 -80 1208 584 1208 2200 c 0
 1208 4328 2848 6080 4680 6080 c 0
 5656 6080 6184 5344 6184 4880 c 0
 6184 4504 5920 4304 5648 4304 c 0
 5416 4304 5112 4464 5112 4832 c 0
 5112 5160 5408 5352 5672 5352 c 0
 5856 5352 5984 5224 6032 5144 c 1
EndSplineSet
Refer: 88 61 N 1 0 0 1 -240 -560 2
EndChar
